<?xml version="1.0" encoding="utf-8"?>
<!-- Generator: Adobe Illustrator 27.8.0, SVG Export Plug-In . SVG Version: 6.00 Build 0)  -->
<svg version="1.1" id="Calque_1" xmlns="http://www.w3.org/2000/svg" xmlns:xlink="http://www.w3.org/1999/xlink" x="0px" y="0px"
	 viewBox="0 0 1354.93 72.32" style="enable-background:new 0 0 1354.93 72.32;" xml:space="preserve">
<g>
	<path d="M4.3,3.66h29.79V46.3h40.03v22.53H4.3V3.66z"/>
	<path d="M77.01,52.82c0-9.68,9.59-13.41,27.65-14.71l22.44-1.58v-0.56c0-3.82-3.63-4.65-14.34-4.65c-11.54,0-23.09,1.68-31.09,4
		V14.93c11.54-3.07,25.42-4.38,38.26-4.38c25.7,0,39.38,6.7,39.38,23.93V46.3c0,1.58,0.09,2.42,0.37,3.82l2.98,15.08l-31.65,5.03
		l-1.77-8.84c-4.47,5.21-14.62,8.94-27.84,8.94C85.02,70.32,77.01,64.18,77.01,52.82z M116.39,53.57c5.03,0,7.91-1.21,9.59-2.61
		c0.84-0.74,1.12-1.21,1.12-2.33v-3.82l-9.78,0.93c-5.03,0.47-6.8,1.4-6.8,4C110.53,52.17,112.95,53.57,116.39,53.57z"/>
	<path d="M185.93,68.83V3.66h58.65c17.5,0,24.49,6.42,24.49,15.64c0,8.66-5.31,13.22-12.85,15.45c9.96,1.96,14.8,8.1,14.8,15.83
		c0,12.38-8.84,18.25-27.84,18.25H185.93z M240.58,26.01c0-2.89-1.77-4.1-7.45-4.1h-17.78v8.1h17.78
		C238.82,30.01,240.58,28.71,240.58,26.01z M241.98,45.19c0-3.07-1.86-4.47-7.82-4.47h-18.81v9.03h18.81
		C240.12,49.75,241.98,48.26,241.98,45.19z"/>
	<path d="M272.05,40.53c0-19.55,17.97-29.98,45.34-29.98c27.28,0,45.25,10.43,45.25,29.98s-16.2,29.79-45.25,29.79
		C288.25,70.32,272.05,60.08,272.05,40.53z M331.36,40.35c0-6.24-4.84-10.15-13.96-10.15c-9.22,0-14.06,3.91-14.06,10.15
		c0,6.33,4.84,10.24,14.06,10.24C326.51,50.59,331.36,46.68,331.36,40.35z"/>
	<path d="M374.92,1.71h14.15l11.36,10.33h-11.36L382,6.92l-7.08,5.12h-11.36L374.92,1.71z M367.1,15.58h29.79v53.25H367.1V15.58z"/>
	<path d="M410.86,48.07V33.74h-8.75V12.04h8.75v-6.8l29.79-4.28v11.08h32.31v21.69h-32.31v6.05c0,6.24,2.42,7.91,13.87,7.91
		c8.01,0,13.03-0.56,18.43-1.49v21.13c-2.89,1.12-13.59,2.98-27.93,2.98C417.47,70.32,410.86,64.46,410.86,48.07z"/>
	<path d="M475.75,40.53c0-18.15,14.43-29.98,45.34-29.98c28.21,0,41.62,9.4,38.36,31.47l-52.51,0.09c1.4,4.1,6.42,7.17,21.41,7.17
		c11.27,0,23.93-1.77,28.4-3.16v20.11c-5.31,2.05-16.39,4.1-33.24,4.1C488.32,70.32,475.75,58.87,475.75,40.53z M532.54,33.46
		c0-4.75-4.93-6.52-11.45-6.52c-8.66,0-12.38,2.33-13.78,6.52H532.54z"/>
	<path d="M580.58,52.82c0-9.68,9.59-13.41,27.65-14.71l22.44-1.58v-0.56c0-3.82-3.63-4.65-14.34-4.65c-11.54,0-23.09,1.68-31.1,4
		V14.93c11.54-3.07,25.42-4.38,38.26-4.38c25.7,0,39.38,6.7,39.38,23.93V46.3c0,1.58,0.09,2.42,0.37,3.82l2.98,15.08l-31.65,5.03
		l-1.77-8.84c-4.47,5.21-14.62,8.94-27.84,8.94C588.59,70.32,580.58,64.18,580.58,52.82z M619.96,53.57c5.03,0,7.91-1.21,9.59-2.61
		c0.84-0.74,1.12-1.21,1.12-2.33v-3.82l-9.78,0.93c-5.03,0.47-6.8,1.4-6.8,4C614.1,52.17,616.52,53.57,619.96,53.57z"/>
	<path d="M694.72,70.32c-17.88,0-24.3-6.05-24.3-21.79v-36.5h29.79v29.98c0,5.87,1.96,7.54,7.54,7.54c4.19,0,7.82-0.74,10.89-2.51
		c1.3-0.74,1.77-1.58,1.77-2.98V12.04h29.79v34.54c0,1.58,0.09,2.42,0.37,3.82l2.98,15.08l-29.98,4.75l-1.86-8.84
		C715.3,66.97,706.64,70.32,694.72,70.32z"/>
	<path d="M772.64,41l-17.22-28.95h31.47l10.99,19.36l10.8-19.36h30.72L822.83,41l18.62,27.84h-32.59L797.5,50.12l-10.99,18.71
		h-31.84L772.64,41z"/>
	<path d="M864.16,3.66h29.79v65.17h-29.79V3.66z"/>
	<path d="M898.42,40.53c0-18.15,14.43-29.98,45.34-29.98c28.21,0,41.62,9.4,38.36,31.47l-52.51,0.09c1.4,4.1,6.42,7.17,21.41,7.17
		c11.27,0,23.93-1.77,28.4-3.16v20.11c-5.31,2.05-16.39,4.1-33.24,4.1C910.99,70.32,898.42,58.87,898.42,40.53z M955.21,33.46
		c0-4.75-4.93-6.52-11.45-6.52c-8.66,0-12.38,2.33-13.78,6.52H955.21z"/>
	<path d="M993.19,48.07V33.74h-8.75V12.04h8.75v-6.8l29.79-4.28v11.08h32.31v21.69h-32.31v6.05c0,6.24,2.42,7.91,13.87,7.91
		c8.01,0,13.03-0.56,18.43-1.49v21.13c-2.89,1.12-13.59,2.98-27.93,2.98C999.8,70.32,993.19,64.46,993.19,48.07z"/>
	<path d="M1067.58,48.07V33.74h-8.75V12.04h8.75v-6.8l29.79-4.28v11.08h32.31v21.69h-32.31v6.05c0,6.24,2.42,7.91,13.87,7.91
		c8.01,0,13.03-0.56,18.43-1.49v21.13c-2.89,1.12-13.59,2.98-27.93,2.98C1074.19,70.32,1067.58,64.46,1067.58,48.07z"/>
	<path d="M1135.82,12.04h29.79v8.19c5.96-7.26,14.8-9.68,23.37-9.68c1.4,0,2.89,0,4.28,0.28v23.09c-1.68-0.19-4.66-0.19-6.8-0.19
		c-8.1,0-14.8,1.96-19.09,5.12c-1.3,1.02-1.77,1.58-1.77,2.98v27h-29.79V12.04z"/>
	<path d="M1194.76,40.53c0-18.15,14.43-29.98,45.34-29.98c28.21,0,41.62,9.4,38.36,31.47l-52.51,0.09c1.4,4.1,6.42,7.17,21.41,7.17
		c11.27,0,23.93-1.77,28.4-3.16v20.11c-5.31,2.05-16.39,4.1-33.24,4.1C1207.32,70.32,1194.76,58.87,1194.76,40.53z M1251.55,33.46
		c0-4.75-4.93-6.52-11.45-6.52c-8.66,0-12.38,2.33-13.78,6.52H1251.55z"/>
	<path d="M1281.34,66.41V47.42c4.47,1.4,16.94,3.82,31.93,3.82c9.31,0,11.36-1.02,11.36-2.98c0-2.79-6.05-2.7-20.02-3.82
		c-18.15-1.49-23.28-6.98-23.28-16.57c0-13.5,16.48-17.32,37.33-17.32c12.1,0,25.51,1.49,31.28,3.07v17.5
		c-6.89-1.49-19.09-2.89-30.16-2.89c-9.22,0-10.71,0.93-10.71,3.07c0,2.33,6.7,2.42,18.15,3.26c13.31,0.93,25.98,4.93,25.98,16.76
		c0,11.64-8.19,18.99-37.89,18.99C1297.54,70.32,1286.64,68.09,1281.34,66.41z"/>
</g>
</svg>
