<?xml version="1.0" encoding="utf-8"?>
<!-- Generator: Adobe Illustrator 27.8.0, SVG Export Plug-In . SVG Version: 6.00 Build 0)  -->
<svg version="1.1" id="Calque_1" xmlns="http://www.w3.org/2000/svg" xmlns:xlink="http://www.w3.org/1999/xlink" x="0px" y="0px"
	 viewBox="0 0 494.75 303.02" style="enable-background:new 0 0 494.75 303.02;" xml:space="preserve">
<g>
	<path d="M3.75,3.31h29.79v42.64h40.03v22.53H3.75V3.31z"/>
	<path d="M76.46,52.47c0-9.68,9.59-13.41,27.65-14.71l22.44-1.58v-0.56c0-3.82-3.63-4.65-14.34-4.65c-11.54,0-23.09,1.68-31.09,4
		V14.57c11.54-3.07,25.42-4.38,38.26-4.38c25.7,0,39.38,6.7,39.38,23.93v11.82c0,1.58,0.09,2.42,0.37,3.82l2.98,15.08l-31.65,5.03
		l-1.77-8.84c-4.47,5.21-14.62,8.94-27.84,8.94C84.47,69.97,76.46,63.83,76.46,52.47z M115.84,53.21c5.03,0,7.91-1.21,9.59-2.61
		c0.84-0.74,1.12-1.21,1.12-2.33v-3.82l-9.78,0.93c-5.03,0.47-6.8,1.4-6.8,4C109.98,51.82,112.4,53.21,115.84,53.21z"/>
	<path d="M3.75,146.88V81.71h58.65c17.5,0,24.49,6.42,24.49,15.64c0,8.66-5.31,13.22-12.85,15.46c9.96,1.96,14.8,8.1,14.8,15.83
		c0,12.38-8.84,18.25-27.84,18.25H3.75z M58.4,104.05c0-2.89-1.77-4.1-7.45-4.1H33.17v8.1h17.78
		C56.63,108.06,58.4,106.75,58.4,104.05z M59.8,123.23c0-3.07-1.86-4.47-7.82-4.47H33.17v9.03h18.81
		C57.94,127.79,59.8,126.31,59.8,123.23z"/>
	<path d="M89.87,118.58c0-19.55,17.97-29.98,45.34-29.98c27.28,0,45.25,10.43,45.25,29.98s-16.2,29.79-45.25,29.79
		C106.07,148.37,89.87,138.13,89.87,118.58z M149.17,118.39c0-6.24-4.84-10.15-13.96-10.15c-9.22,0-14.06,3.91-14.06,10.15
		c0,6.33,4.84,10.24,14.06,10.24C144.33,128.63,149.17,124.72,149.17,118.39z"/>
	<path d="M192.74,79.75h14.15l11.36,10.33h-11.36l-7.08-5.12l-7.08,5.12h-11.36L192.74,79.75z M184.92,93.63h29.79v53.25h-29.79
		V93.63z"/>
	<path d="M228.68,126.12v-14.34h-8.75V90.09h8.75v-6.8l29.79-4.28v11.08h32.31v21.69h-32.31v6.05c0,6.24,2.42,7.91,13.87,7.91
		c8.01,0,13.03-0.56,18.43-1.49v21.13c-2.89,1.12-13.59,2.98-27.93,2.98C235.29,148.37,228.68,142.51,228.68,126.12z"/>
	<path d="M293.57,118.58c0-18.15,14.43-29.98,45.34-29.98c28.21,0,41.62,9.4,38.36,31.47l-52.51,0.09c1.4,4.1,6.42,7.17,21.41,7.17
		c11.27,0,23.93-1.77,28.4-3.17v20.11c-5.31,2.05-16.39,4.1-33.24,4.1C306.14,148.37,293.57,136.92,293.57,118.58z M350.36,111.5
		c0-4.75-4.93-6.52-11.45-6.52c-8.66,0-12.38,2.33-13.78,6.52H350.36z"/>
	<path d="M1.05,205.35c0-9.68,9.59-13.41,27.65-14.71l22.44-1.58v-0.56c0-3.82-3.63-4.65-14.34-4.65c-11.54,0-23.09,1.68-31.1,4
		v-20.39c11.54-3.07,25.42-4.38,38.26-4.38c25.7,0,39.38,6.7,39.38,23.93v11.82c0,1.58,0.09,2.42,0.37,3.82l2.98,15.08l-31.65,5.03
		l-1.77-8.84c-4.47,5.21-14.62,8.94-27.84,8.94C9.06,222.85,1.05,216.71,1.05,205.35z M40.43,206.09c5.03,0,7.91-1.21,9.59-2.61
		c0.84-0.74,1.12-1.21,1.12-2.33v-3.82l-9.78,0.93c-5.03,0.47-6.8,1.4-6.8,4C34.57,204.7,36.99,206.09,40.43,206.09z"/>
	<path d="M115.19,222.85c-17.88,0-24.3-6.05-24.3-21.79v-36.5h29.79v29.98c0,5.86,1.96,7.54,7.54,7.54c4.19,0,7.82-0.75,10.89-2.51
		c1.3-0.74,1.77-1.58,1.77-2.98v-32.03h29.79v34.54c0,1.58,0.09,2.42,0.37,3.82l2.98,15.08l-29.98,4.75l-1.86-8.84
		C135.77,219.5,127.11,222.85,115.19,222.85z"/>
	<path d="M193.12,193.52l-17.22-28.95h31.47l10.99,19.37l10.8-19.37h30.72l-16.57,28.95l18.62,27.84h-32.59l-11.36-18.71
		l-10.99,18.71h-31.84L193.12,193.52z"/>
	<path d="M3.47,234.59h29.79v65.17H3.47V234.59z"/>
	<path d="M37.73,271.46c0-18.16,14.43-29.98,45.34-29.98c28.21,0,41.62,9.4,38.36,31.47l-52.51,0.09c1.4,4.1,6.42,7.17,21.41,7.17
		c11.27,0,23.93-1.77,28.4-3.17v20.11c-5.31,2.05-16.39,4.1-33.24,4.1C50.3,301.25,37.73,289.8,37.73,271.46z M94.52,264.38
		c0-4.75-4.93-6.52-11.45-6.52c-8.66,0-12.38,2.33-13.78,6.52H94.52z"/>
	<path d="M132.51,279v-14.34h-8.75v-21.69h8.75v-6.8l29.79-4.28v11.08h32.31v21.69H162.3v6.05c0,6.24,2.42,7.91,13.87,7.91
		c8.01,0,13.03-0.56,18.43-1.49v21.13c-2.89,1.12-13.59,2.98-27.93,2.98C139.12,301.25,132.51,295.39,132.51,279z"/>
	<path d="M206.89,279v-14.34h-8.75v-21.69h8.75v-6.8l29.79-4.28v11.08h32.31v21.69h-32.31v6.05c0,6.24,2.42,7.91,13.87,7.91
		c8.01,0,13.03-0.56,18.43-1.49v21.13c-2.89,1.12-13.59,2.98-27.93,2.98C213.5,301.25,206.89,295.39,206.89,279z"/>
	<path d="M275.13,242.97h29.79v8.19c5.96-7.26,14.8-9.68,23.37-9.68c1.4,0,2.89,0,4.28,0.28v23.09c-1.68-0.19-4.65-0.19-6.8-0.19
		c-8.1,0-14.8,1.96-19.09,5.12c-1.3,1.02-1.77,1.58-1.77,2.98v27h-29.79V242.97z"/>
	<path d="M334.07,271.46c0-18.16,14.43-29.98,45.34-29.98c28.21,0,41.62,9.4,38.36,31.47l-52.51,0.09c1.4,4.1,6.42,7.17,21.41,7.17
		c11.27,0,23.93-1.77,28.4-3.17v20.11c-5.31,2.05-16.39,4.1-33.24,4.1C346.63,301.25,334.07,289.8,334.07,271.46z M390.86,264.38
		c0-4.75-4.93-6.52-11.45-6.52c-8.66,0-12.38,2.33-13.78,6.52H390.86z"/>
	<path d="M420.65,297.34v-18.99c4.47,1.4,16.94,3.82,31.93,3.82c9.31,0,11.36-1.02,11.36-2.98c0-2.79-6.05-2.7-20.02-3.82
		c-18.15-1.49-23.27-6.98-23.27-16.57c0-13.5,16.48-17.32,37.33-17.32c12.1,0,25.51,1.49,31.28,3.07v17.5
		c-6.89-1.49-19.09-2.89-30.16-2.89c-9.22,0-10.71,0.93-10.71,3.07c0,2.33,6.7,2.42,18.15,3.26c13.31,0.93,25.98,4.93,25.98,16.76
		c0,11.64-8.19,18.99-37.89,18.99C436.85,301.25,425.95,299.02,420.65,297.34z"/>
</g>
</svg>
