<?xml version="1.0" encoding="utf-8"?>
<!-- Generator: Adobe Illustrator 27.8.0, SVG Export Plug-In . SVG Version: 6.00 Build 0)  -->
<svg version="1.1" xmlns="http://www.w3.org/2000/svg" xmlns:xlink="http://www.w3.org/1999/xlink" x="0px" y="0px"
	 viewBox="0 0 1920 2826" style="enable-background:new 0 0 1920 2826;" xml:space="preserve">
<style type="text/css">
	.st0{display:none;}
	.st1{display:inline;}
	.st2{fill:none;stroke:#FFFFFF;stroke-width:1.1487;stroke-miterlimit:10;}
	.st3{fill:none;stroke:#000000;stroke-width:0.13;stroke-miterlimit:10;}
	.st4{fill:none;stroke:#FFFFFF;stroke-width:1.5;stroke-miterlimit:10;}
	.st5{opacity:0.8;fill:#FFFFFF;}
	.st6{fill:#FFFFFF;stroke:#FFFFFF;stroke-width:0.5;stroke-miterlimit:10;}
	.st7{fill:none;stroke:#FFFFFF;stroke-miterlimit:10;}
	.st8{stroke:#FFFFFF;stroke-width:1.5;stroke-miterlimit:10;}
	.st9{display:inline;fill:none;}
	.st10{fill:#FFFFFF;}
	.st11{clip-path:url(#SVGID_00000008840378947767759840000006585013895185972405_);fill:#FFFFFF;}
	.st12{clip-path:url(#SVGID_00000036949019681466900520000004111784470844484524_);fill:#FFFFFF;}
</style>
<g id="BG" class="st0">
	<rect y="0" class="st1" width="1920" height="2826"/>
</g>
<g id="Calque_1" class="st0">
</g>
<g id="Outlined">
	<g>
		<g>
			<g>
				<path class="st10" d="M1502.43,244.86c3.51-12.29,9.37-29.27,15.81-47.12h-1.76c-16.1,0.88-24.88-9.07-24.88-19.61
					c0-8.78,4.98-16.1,16.98-17.85c5.85-0.88,14.34-1.76,24.88-2.63c12-30.73,23.42-58.25,27.51-66.44
					c7.9-16.1,14.93-21.66,29.27-21.66c14.05,0,22.25,6.73,27.22,25.76c3.22,12,8.2,33.66,13.46,57.37l10.83-0.29
					c10.54-0.29,17.56,5.56,17.56,14.93c0,7.9-4.68,14.63-17.85,16.98l-3.81,0.59l10.24,47.71c3.51,16.1,0.29,29.56-19.03,29.56
					c-9.66,0-15.51-7.32-17.85-16.98c-3.81-14.93-7.61-33.95-11.71-54.73c-12.88,1.46-26.34,2.93-38.05,3.8
					c-7.9,24.29-14.63,45.07-19.61,58.54c-4.98,13.76-12.88,18.15-21.95,18.15C1506.53,270.91,1498.62,258.33,1502.43,244.86z
					 M1592.29,154.13l-6.44-34.25l-11.71,35.12L1592.29,154.13z"/>
				<path class="st10" d="M1655.21,213.84c0-25.76,32.78-39.81,73.47-46.54c-0.29-22.83-3.22-30.44-9.37-30.44
					s-11.71,5.27-18.73,17.85c-5.56,9.95-12,15.81-21.66,15.81c-12.59,0-21.66-7.61-21.66-20.2c0-26.93,40.68-51.81,71.12-51.81
					c30.44,0,37.76,31.32,38.93,64.98c11.71-0.29,19.61,4.98,19.61,15.81c0,12.29-7.32,16.68-20.49,17.85
					c-0.88,10.83-2.34,19.32-4.68,28.68c-6.44,25.76-16.1,31.61-35.42,31.61C1687.11,257.45,1655.21,238.42,1655.21,213.84z
					 M1716.38,223.2c5.56,0,7.61-2.93,9.37-12.88l1.17-8.49c-17.85,2.93-26.93,6.44-26.93,12
					C1699.99,218.23,1708.19,223.2,1716.38,223.2z"/>
			</g>
			<g>
				<path class="st10" d="M1573.54,348.08v-0.18c-1.26-0.12-2.04-0.96-2.1-2.7c-0.12-3-0.18-8.34-0.18-13.92
					c-2.4,0.3-3.24-0.9-3.24-2.28c0-1.2,0.78-2.1,2.64-2.4l0.6-0.12c0.06-6.72,0.18-13.26,0.36-16.86c0.06-2.1,1.02-3.24,2.82-3.24
					c1.8,0,2.64,1.02,2.58,3.24v1.02c8.88-0.18,18.48,2.76,18.48,8.1c0,3.48-4.62,6.54-10.08,8.76c7.08,1.08,13.62,4.32,13.62,9.48
					c0,8.46-15.18,13.5-22.74,13.5C1574.56,350.48,1573.48,349.7,1573.54,348.08z M1576.24,345.69c9.42-0.78,17.34-4.74,17.34-8.52
					c0-3.54-9.12-6.36-16.98-6.3c-0.12,6.6-0.3,12.66-0.36,14.28l-0.06,0.54H1576.24z M1589.98,319.11c0-2.22-6.06-3.96-13.08-3.84
					l-0.18,10.26C1586.32,323.43,1589.98,320.85,1589.98,319.11z"/>
				<path class="st10" d="M1602.22,343.95c-0.12-7.2,0.54-19.38,1.32-29.82c0.18-2.46,1.2-3.42,2.94-3.42
					c1.62,0,2.76,1.08,2.58,3.42c-0.54,6.48-1.32,18.24-1.74,27.6c4.32-1.26,13.32-3.18,16.08-3.24c1.68-0.06,2.46,0.72,2.46,1.86
					c0,0.96-0.66,1.68-1.98,2.04c-5.34,1.38-12.48,3.42-16.86,4.92C1604.02,348.32,1602.22,347,1602.22,343.95z"/>
				<path class="st10" d="M1623.4,345.99c1.2-3.42,2.94-8.16,4.74-12.9l-3.18,0.18c-1.98,0.12-3.12-1.08-3.12-2.4
					c0-1.2,0.6-2.1,2.34-2.34c1.44-0.18,3.48-0.36,5.94-0.54c2.64-6.78,5.16-12.96,6.3-15.36c0.96-1.98,1.86-3.06,3.96-3.06
					c1.86,0,2.82,1.02,3.42,3.24c0.96,3.54,2.22,8.82,3.48,14.34l3.3-0.12c1.38,0,2.34,0.72,2.34,1.92s-0.78,1.98-2.46,2.16
					l-2.16,0.24l2.82,12.48c0.48,2.16-0.3,3.78-2.4,3.78c-1.38,0-2.16-0.9-2.52-2.52c-0.84-3.42-1.92-8.22-3-13.2l-9.3,0.78
					l-5.22,14.28c-0.78,2.04-1.68,2.76-3.06,2.76C1623.76,349.7,1622.74,347.9,1623.4,345.99z M1642.18,327.33l-2.4-10.86
					l-4.08,11.16L1642.18,327.33z"/>
				<path class="st10" d="M1654.72,334.23c0-13.08,6.78-24.84,14.76-24.84c4.44,0,7.2,4.08,7.2,7.56c0,1.98-1.2,2.82-2.64,2.82
					c-3.3,0-1.92-5.64-5.52-5.64c-3.54,0-8.34,8.7-8.34,19.98c0,6.06,1.5,9.12,5.1,9.12c4.32,0,7.68-5.46,9.54-11.94
					c0.54-1.62,1.32-1.98,2.22-1.98c1.32,0,2.22,0.9,2.1,2.34c-0.48,5.64-5.7,16.68-14.46,16.68
					C1657.84,348.32,1654.72,342.93,1654.72,334.23z"/>
				<path class="st10" d="M1687.24,337.95l-0.36,8.7c-0.12,1.74-0.78,2.7-2.28,2.7c-1.44,0-2.28-1.02-2.28-2.4
					c-0.06-2.04-0.06-6.18,0-11.16c-1.02-0.72-1.38-1.44-1.38-2.16c0-0.96,0.54-1.86,1.38-2.4l0.24-19.62
					c0.06-2.28,1.2-3.3,2.82-3.3c1.74,0,2.76,1.02,2.7,3.18l-0.48,16.26c4.62-4.26,11.1-9.84,15.72-13.74
					c1.56-1.38,2.4-1.68,3.24-1.68c2.4,0,3.12,2.76,1.38,4.32c-2.94,2.58-15.42,12.72-19.38,16.26c3.9,2.52,11.58,6.48,17.88,10.02
					c1.5,0.84,2.22,1.38,2.22,2.52c0,1.86-1.86,2.82-3.9,1.8C1698.4,344.07,1692.88,341.19,1687.24,337.95z"/>
			</g>
		</g>
		<g>
			<g>
				<path class="st10" d="M207.73,343.95c-0.12-7.2,0.54-19.38,1.32-29.82c0.18-2.46,1.2-3.42,2.94-3.42c1.62,0,2.76,1.08,2.58,3.42
					c-0.54,6.48-1.32,18.24-1.74,27.6c4.32-1.26,13.32-3.18,16.08-3.24c1.68-0.06,2.46,0.72,2.46,1.86c0,0.96-0.66,1.68-1.98,2.04
					c-5.34,1.38-12.48,3.42-16.86,4.92C209.53,348.32,207.73,347,207.73,343.95z"/>
				<path class="st10" d="M232.33,309.33c0-1.74,1.32-3.3,3-3.3c1.26,0,2.04,0.42,2.52,1.08c1.14,0.18,1.86,1.14,1.86,2.34
					c0,2.16-1.44,3.6-3.9,3.6C233.29,313.05,232.33,311.25,232.33,309.33z M232.69,345.38c-0.18-7.5-0.18-14.76-0.06-21.96
					c0.06-1.98,1.02-3.18,2.76-3.18c1.92,0,2.7,1.2,2.64,3.3c-0.12,4.02-0.18,11.28-0.66,21.84c-0.12,1.92-1.02,2.88-2.34,2.88
					C233.59,348.26,232.75,347.48,232.69,345.38z"/>
				<path class="st10" d="M243.37,332.67c0-12.06,7.62-24.12,16.62-24.12c4.68,0,7.8,3.54,7.8,6.96c0,2.34-1.38,3.3-3.06,3.3
					c-3.24,0-1.8-5.16-5.76-5.16c-5.04,0-10.14,9.24-10.14,18.66c0,8.04,2.58,12,6.42,12c5.52,0,10.5-7.62,10.5-12.78
					c0-0.96-0.36-1.32-1.14-1.32c-1.14,0-7.08,1.02-9.06,1.14c-1.74,0.12-2.7-0.84-2.7-2.28c0-1.2,0.72-1.92,2.16-2.28
					c3.3-0.78,9.18-1.44,12.36-1.44c3.12,0,3.72,1.74,3.72,4.5c0,8.58-7.32,19.5-16.5,19.5
					C247.45,349.34,243.37,342.33,243.37,332.67z"/>
				<path class="st10" d="M292.75,347c0-2.16,0.3-7.8,0.6-14.16l-12.54,1.44c-0.12,5.1-0.3,10.08-0.48,13.44
					c-0.06,1.92-0.72,3.12-2.46,3.12c-1.5,0-2.22-0.96-2.28-2.52c-0.06-2.22-0.06-7.62-0.06-13.32l-1.44,0.18
					c-2.22,0.3-3.24-0.84-3.24-2.4c0-1.5,0.84-2.1,2.28-2.4l2.4-0.42l0.24-15.36c0.12-2.28,1.2-3.3,2.94-3.3
					c1.62,0,2.64,0.84,2.64,3.12l-0.36,14.82c3.9-0.42,8.58-0.9,12.6-1.2l1.2-19.74c0.12-2.04,1.32-3.12,2.88-3.12
					c1.86,0,2.76,1.26,2.7,3.18l-1.32,19.32c1.32-0.12,2.4-0.18,3.24-0.18c1.56,0,2.76,0.54,2.76,2.1c0,1.38-0.84,2.16-2.58,2.34
					l-3.72,0.36c-0.54,6.72-0.96,12.54-1.2,14.7c-0.18,1.8-1.02,2.76-2.46,2.76C293.53,349.76,292.75,348.62,292.75,347z"/>
				<path class="st10" d="M313.51,345.93c-0.12-4.5,0.24-20.46,0.36-27.78l-8.88,1.32c-2.52,0.36-3.54-0.84-3.54-2.46
					c0-1.32,0.96-2.22,2.34-2.46c2.22-0.42,6.06-0.96,10.56-1.5c0.48-1.08,1.38-1.68,2.64-1.68c1.02,0.06,1.74,0.3,2.22,1.14
					c3.42-0.36,6.84-0.66,9.9-0.84c1.74-0.06,2.76,0.6,2.76,1.98c0,1.26-0.78,1.92-2.58,2.22l-9.66,1.44
					c-0.24,6.96-0.72,19.5-1.32,28.62c-0.18,2.16-1.14,2.82-2.4,2.82C314.29,348.74,313.57,347.84,313.51,345.93z"/>
			</g>
			<g>
				<path class="st10" d="M139.52,251.89l25.76-68.49l-20.49,1.46c-7.61,0.59-11.71-3.8-11.71-9.07c0-4.68,2.34-8.49,9.37-9.37
					l30.44-2.63c13.17-33.95,25.76-65.27,31.61-77.56c3.81-7.9,7.32-12.59,16.1-12.59c7.32,0,11.12,4.39,13.17,12.29
					c4.98,18.73,11.71,45.95,18.44,74.05l17.56-0.59c5.85,0,9.37,2.93,9.37,7.61c0,4.98-2.93,7.9-9.95,8.49l-12.88,1.17l14.93,65.27
					c2.05,9.07-2.05,14.63-9.37,14.63c-5.56,0-8.78-3.81-10.24-10.54l-15.51-67.61l-48,3.51l-27.51,73.47
					c-3.22,8.49-6.44,12-12.29,12C140.4,267.4,136.3,260.37,139.52,251.89z M232.01,160.86l-13.76-59.42l-22.83,61.17
					C207.42,162.03,220.59,161.15,232.01,160.86z"/>
				<path class="st10" d="M286.45,212.96c0-23.71,36.59-35.12,80.78-40.39v-0.59c0-41.27-8.2-53.56-17.56-53.56
					c-12.59,0-26.34,12.59-36,35.12c-3.22,7.61-5.56,12-12.59,12c-7.02,0-11.42-4.1-11.42-10.83c0-16.98,33.66-54.44,64.1-54.44
					c28.68,0,33.95,35.42,33.95,70.25l4.98-0.29c7.9-0.59,12.59,1.76,12.59,7.61c0,5.56-3.51,7.9-10.54,8.49
					c-2.93,0.29-5.27,0.59-7.61,0.59c-0.88,13.76-2.34,26.93-4.39,36.59c-5.56,28.1-15.51,30.15-33.95,30.15
					C320.4,253.64,286.45,234.62,286.45,212.96z M349.08,234.32c7.9,0,11.71-2.63,14.05-12c1.76-6.73,2.93-19.9,3.51-32.78
					c-43.9,6.44-58.54,15.81-58.54,22.54C308.11,221.15,327.13,234.32,349.08,234.32z"/>
			</g>
		</g>
		<g>
			<g>
				<path class="st10" d="M518.99,335.73l-0.24,11.64c-0.12,2.1-0.9,3.06-2.46,3.06c-1.44,0-2.4-0.72-2.46-2.88
					c-0.06-3-0.12-8.7-0.12-14.7l-0.42-0.24c-1.44-0.78-1.86-1.32-1.86-2.4c0-1.08,0.6-1.8,2.34-2.16c0-7.26,0.06-14.52,0.12-18.36
					c0.06-2.28,1.2-3.3,2.88-3.3c1.74,0,2.64,1.14,2.64,3.18v1.62c8.1,0.48,18.48,3.96,18.48,9.48c0,4.62-6.66,8.1-16.62,10.68
					c4.2,2.16,9.6,5.1,15.36,8.34c1.44,0.84,2.28,1.62,2.28,2.82c0,1.8-1.98,3.18-4.2,1.98L518.99,335.73z M532.25,320.91
					c0-2.16-5.22-4.02-12.96-4.62l-0.18,10.92C526.49,325.71,532.25,322.95,532.25,320.91z"/>
				<path class="st10" d="M542.57,339.81l-0.06-5.28l-0.6,0.12c-1.92,0.42-3.18-0.72-3.18-2.28c0-1.08,0.54-1.8,1.62-2.16l2.16-0.6
					l0.06-12.18h-2.1c-1.74-0.06-2.7-0.96-2.7-2.34c0-1.44,0.84-2.22,2.28-2.4l2.58-0.18l0.06-2.52c0.06-2.22,0.96-3.36,2.88-3.36
					c1.44,0,2.64,0.78,2.58,3.18l-0.06,2.52c5.4-0.12,12.36-0.18,17.22-0.06c1.62,0.06,2.7,0.72,2.7,2.1c0,1.32-1.14,2.04-2.76,2.1
					c-3.06,0.18-10.8,0.6-17.22,0.84l-0.18,10.98c6.78-1.62,15.84-3.66,17.52-3.72c1.32-0.06,2.04,0.66,2.1,1.8
					c0,1.14-0.84,1.92-2.28,2.34c-5.04,1.56-12.06,3.36-17.4,4.62v5.52c0,3.78,0.84,4.74,3.96,4.74c3.12,0,8.04-1.14,12.06-2.28
					c1.62-0.42,2.88,0.36,2.88,1.86c0,0.96-0.66,1.92-2.22,2.52c-4.86,1.92-10.92,2.88-14.58,2.88
					C544.01,348.56,542.63,345.51,542.57,339.81z"/>
				<path class="st10" d="M568.49,332.67c0-12.06,7.62-24.12,16.62-24.12c4.68,0,7.8,3.54,7.8,6.96c0,2.34-1.38,3.3-3.06,3.3
					c-3.24,0-1.8-5.16-5.76-5.16c-5.04,0-10.14,9.24-10.14,18.66c0,8.04,2.58,12,6.42,12c5.52,0,10.5-7.62,10.5-12.78
					c0-0.96-0.36-1.32-1.14-1.32c-1.14,0-7.08,1.02-9.06,1.14c-1.74,0.12-2.7-0.84-2.7-2.28c0-1.2,0.72-1.92,2.16-2.28
					c3.3-0.78,9.18-1.44,12.36-1.44c3.12,0,3.72,1.74,3.72,4.5c0,8.58-7.32,19.5-16.5,19.5
					C572.57,349.34,568.49,342.33,568.49,332.67z"/>
				<path class="st10" d="M598.67,329.85c0-4.26,0.6-8.82,1.26-12.12c0.48-2.58,1.44-3.78,3.3-3.78c1.8,0,2.7,1.5,2.58,3.18
					c-0.18,2.4-1.68,7.56-1.68,13.86c0,8.1,2.34,10.92,5.16,10.92c4.26,0,7.86-8.58,7.86-20.46c0-2.52-0.12-4.86-0.42-7.86
					c-0.24-2.58,0.96-3.66,2.64-3.66c1.74,0,2.46,1.26,2.76,3.18c0.3,2.28,0.48,4.74,0.48,7.74c0,13.32-4.56,26.58-13.44,26.58
					C601.25,347.43,598.67,338.43,598.67,329.85z"/>
				<path class="st10" d="M627.05,343.95c-0.12-7.2,0.54-19.38,1.32-29.82c0.18-2.46,1.2-3.42,2.94-3.42c1.62,0,2.76,1.08,2.58,3.42
					c-0.54,6.48-1.32,18.24-1.74,27.6c4.32-1.26,13.32-3.18,16.08-3.24c1.68-0.06,2.46,0.72,2.46,1.86c0,0.96-0.66,1.68-1.98,2.04
					c-5.34,1.38-12.48,3.42-16.86,4.92C628.85,348.32,627.05,347,627.05,343.95z"/>
				<path class="st10" d="M648.22,345.99c1.2-3.42,2.94-8.16,4.74-12.9l-3.18,0.18c-1.98,0.12-3.12-1.08-3.12-2.4
					c0-1.2,0.6-2.1,2.34-2.34c1.44-0.18,3.48-0.36,5.94-0.54c2.64-6.78,5.16-12.96,6.3-15.36c0.96-1.98,1.86-3.06,3.96-3.06
					c1.86,0,2.82,1.02,3.42,3.24c0.96,3.54,2.22,8.82,3.48,14.34l3.3-0.12c1.38,0,2.34,0.72,2.34,1.92s-0.78,1.98-2.46,2.16
					l-2.16,0.24l2.82,12.48c0.48,2.16-0.3,3.78-2.4,3.78c-1.38,0-2.16-0.9-2.52-2.52c-0.84-3.42-1.92-8.22-3-13.2l-9.3,0.78
					l-5.22,14.28c-0.78,2.04-1.68,2.76-3.06,2.76C648.59,349.7,647.57,347.9,648.22,345.99z M667,327.33l-2.4-10.86l-4.08,11.16
					L667,327.33z"/>
				<path class="st10" d="M687.1,335.73l-0.24,11.64c-0.12,2.1-0.9,3.06-2.46,3.06c-1.44,0-2.4-0.72-2.46-2.88
					c-0.06-3-0.12-8.7-0.12-14.7l-0.42-0.24c-1.44-0.78-1.86-1.32-1.86-2.4c0-1.08,0.6-1.8,2.34-2.16c0-7.26,0.06-14.52,0.12-18.36
					c0.06-2.28,1.2-3.3,2.88-3.3c1.74,0,2.64,1.14,2.64,3.18v1.62c8.1,0.48,18.48,3.96,18.48,9.48c0,4.62-6.66,8.1-16.62,10.68
					c4.2,2.16,9.6,5.1,15.36,8.34c1.44,0.84,2.28,1.62,2.28,2.82c0,1.8-1.98,3.18-4.2,1.98L687.1,335.73z M700.36,320.91
					c0-2.16-5.22-4.02-12.96-4.62l-0.18,10.92C694.6,325.71,700.36,322.95,700.36,320.91z"/>
			</g>
			<g>
				<path class="st10" d="M477.18,250.13c5.85-16.68,14.34-39.81,23.12-62.93l-15.51,0.88c-9.66,0.59-15.22-5.27-15.22-11.71
					c0-5.85,2.93-10.24,11.42-11.42c7.02-0.88,16.98-1.76,28.98-2.63c12.88-33.07,25.17-63.22,30.73-74.93
					c4.68-9.66,9.07-14.93,19.32-14.93c9.07,0,13.76,4.98,16.68,15.81c4.68,17.27,10.83,43.03,16.98,69.95l16.1-0.59
					c6.73,0,11.42,3.51,11.42,9.37c0,5.85-3.81,9.66-12,10.54l-10.54,1.17l13.76,60.88c2.34,10.54-1.46,18.44-11.71,18.44
					c-6.73,0-10.54-4.39-12.29-12.29c-4.1-16.68-9.37-40.1-14.63-64.39l-45.37,3.8l-25.46,69.66c-3.81,9.95-8.2,13.46-14.93,13.46
					C478.94,268.28,473.96,259.5,477.18,250.13z M568.8,159.1l-11.71-52.98l-19.9,54.44L568.8,159.1z"/>
				<path class="st10" d="M625.57,213.25c0-24.29,35.71-36.59,79.03-42.15c0-36.88-6.73-48-15.51-48
					c-10.83,0-22.54,10.54-31.61,30.73c-3.81,8.2-7.32,12.88-14.93,12.88c-8.49,0-14.05-4.98-14.05-13.17
					c0-19.32,35.42-53.86,65.86-53.86c29.27,0,35.12,34.25,35.42,69.08l3.22-0.29c8.78-0.59,14.63,2.34,14.63,9.66
					s-4.68,10.24-12.88,10.83l-5.56,0.59c-0.88,12.88-2.63,24.88-4.68,34.54c-5.85,27.81-15.51,30.44-34.25,30.44
					C659.23,254.52,625.57,235.49,625.57,213.25z M687.92,231.4c7.32,0,10.83-2.93,12.88-12c1.17-5.56,2.34-15.51,3.22-26.93
					c-37.46,5.85-50.93,13.46-50.93,19.9C653.09,220.27,669.48,231.4,687.92,231.4z"/>
			</g>
		</g>
		<g>
			<g>
				<path class="st10" d="M871.38,347.54c-0.96-3.36-5.04-26.34-5.46-30.84c-0.18-2.04,0.84-3.12,2.52-3.12
					c1.44,0,2.22,1.08,2.52,2.94c0.42,2.58,1.38,9.66,2.52,17.82c0.96-9.72,1.8-16.08,2.76-20.64c0.48-2.22,1.26-3.72,3.06-3.72
					c1.68,0,2.7,1.38,3.66,3.84c1.38,3.6,3.54,11.52,4.86,16.86c1.98-5.22,5.22-13.2,7.5-17.28c1.44-2.64,2.64-3.78,4.26-3.78
					c1.86,0,3.12,1.68,3.78,6.78c0.84,6.18,1.68,24.84,1.62,28.68c-0.06,2.04-1.2,2.7-2.22,2.7c-1.38,0-2.28-0.9-2.4-2.52
					c-0.24-2.34-0.84-18.06-1.44-23.58c-0.18-1.74-0.36-2.76-0.9-2.76c-0.48,0-0.9,0.72-1.62,2.4c-1.74,4.08-4.68,11.28-6.18,14.58
					c-1.02,2.22-1.74,2.7-2.94,2.7c-1.38,0-2.04-0.78-2.64-2.7c-1.08-3.72-2.46-9.12-3.66-13.5c-0.42-1.44-0.66-1.8-1.08-1.8
					c-0.48,0-0.6,0.78-0.78,2.16c-0.96,7.38-2.4,22.26-2.76,24.42c-0.3,1.8-0.9,2.64-2.4,2.64
					C872.58,349.82,871.86,349.22,871.38,347.54z"/>
				<path class="st10" d="M911.94,339.81l-0.06-5.28l-0.6,0.12c-1.92,0.42-3.18-0.72-3.18-2.28c0-1.08,0.54-1.8,1.62-2.16l2.16-0.6
					l0.06-12.18h-2.1c-1.74-0.06-2.7-0.96-2.7-2.34c0-1.44,0.84-2.22,2.28-2.4l2.58-0.18l0.06-2.52c0.06-2.22,0.96-3.36,2.88-3.36
					c1.44,0,2.64,0.78,2.58,3.18l-0.06,2.52c5.4-0.12,12.36-0.18,17.22-0.06c1.62,0.06,2.7,0.72,2.7,2.1c0,1.32-1.14,2.04-2.76,2.1
					c-3.06,0.18-10.8,0.6-17.22,0.84l-0.18,10.98c6.78-1.62,15.84-3.66,17.52-3.72c1.32-0.06,2.04,0.66,2.1,1.8
					c0,1.14-0.84,1.92-2.28,2.34c-5.04,1.56-12.06,3.36-17.4,4.62v5.52c0,3.78,0.84,4.74,3.96,4.74c3.12,0,8.04-1.14,12.06-2.28
					c1.62-0.42,2.88,0.36,2.88,1.86c0,0.96-0.66,1.92-2.22,2.52c-4.86,1.92-10.92,2.88-14.58,2.88
					C913.38,348.56,912,345.51,911.94,339.81z"/>
				<path class="st10" d="M939.96,345.14c-0.18-4.68,0.06-18.54,0.3-28.92l-1.62-0.18c-1.86-0.18-2.7-0.96-2.7-2.46
					c0-1.32,0.78-2.34,2.7-2.28l1.68,0.06c0.06-0.54,0.06-1.02,0.06-1.44c0.06-1.98,1.26-2.94,2.76-2.94c2.04,0,2.76,1.38,2.7,3.06
					l-0.06,1.86c10.86,1.5,20.1,5.82,20.1,13.26c0,9.66-14.94,24.06-22.68,24.06C941.1,349.22,940.08,348.32,939.96,345.14z
					 M945.6,343.53c2.76,0,14.88-10.02,14.88-17.76c0-4.62-4.98-7.32-14.88-8.88c-0.24,8.82-0.66,20.34-0.72,24.96
					C944.82,343.23,945,343.53,945.6,343.53z"/>
				<path class="st10" d="M970.08,309.33c0-1.74,1.32-3.3,3-3.3c1.26,0,2.04,0.42,2.52,1.08c1.14,0.18,1.86,1.14,1.86,2.34
					c0,2.16-1.44,3.6-3.9,3.6C971.04,313.05,970.08,311.25,970.08,309.33z M970.44,345.38c-0.18-7.5-0.18-14.76-0.06-21.96
					c0.06-1.98,1.02-3.18,2.76-3.18c1.92,0,2.7,1.2,2.64,3.3c-0.12,4.02-0.18,11.28-0.66,21.84c-0.12,1.92-1.02,2.88-2.34,2.88
					C971.34,348.26,970.5,347.48,970.44,345.38z"/>
				<path class="st10" d="M981.41,329.85c0-4.26,0.6-8.82,1.26-12.12c0.48-2.58,1.44-3.78,3.3-3.78c1.8,0,2.7,1.5,2.58,3.18
					c-0.18,2.4-1.68,7.56-1.68,13.86c0,8.1,2.34,10.92,5.16,10.92c4.26,0,7.86-8.58,7.86-20.46c0-2.52-0.12-4.86-0.42-7.86
					c-0.24-2.58,0.96-3.66,2.64-3.66c1.74,0,2.46,1.26,2.76,3.18c0.3,2.28,0.48,4.74,0.48,7.74c0,13.32-4.56,26.58-13.44,26.58
					C983.99,347.43,981.41,338.43,981.41,329.85z"/>
				<path class="st10" d="M1013.7,347.54c-0.96-3.36-5.04-26.34-5.46-30.84c-0.18-2.04,0.84-3.12,2.52-3.12
					c1.44,0,2.22,1.08,2.52,2.94c0.42,2.58,1.38,9.66,2.52,17.82c0.96-9.72,1.8-16.08,2.76-20.64c0.48-2.22,1.26-3.72,3.06-3.72
					c1.68,0,2.7,1.38,3.66,3.84c1.38,3.6,3.54,11.52,4.86,16.86c1.98-5.22,5.22-13.2,7.5-17.28c1.44-2.64,2.64-3.78,4.26-3.78
					c1.86,0,3.12,1.68,3.78,6.78c0.84,6.18,1.68,24.84,1.62,28.68c-0.06,2.04-1.2,2.7-2.22,2.7c-1.38,0-2.28-0.9-2.4-2.52
					c-0.24-2.34-0.84-18.06-1.44-23.58c-0.18-1.74-0.36-2.76-0.9-2.76c-0.48,0-0.9,0.72-1.62,2.4c-1.74,4.08-4.68,11.28-6.18,14.58
					c-1.02,2.22-1.74,2.7-2.94,2.7c-1.38,0-2.04-0.78-2.64-2.7c-1.08-3.72-2.46-9.12-3.66-13.5c-0.42-1.44-0.66-1.8-1.08-1.8
					c-0.48,0-0.6,0.78-0.78,2.16c-0.96,7.38-2.4,22.26-2.76,24.42c-0.3,1.8-0.9,2.64-2.4,2.64
					C1014.9,349.82,1014.17,349.22,1013.7,347.54z"/>
			</g>
			<g>
				<path class="st10" d="M823.71,248.37c4.98-15.22,12.59-36,20.78-57.66l-11.12,0.59c-11.71,0.59-18.15-6.44-18.15-14.34
					c0-6.73,3.22-12.29,13.17-13.76c6.73-0.88,16.1-1.76,27.51-2.63c12.59-32.49,24.59-61.47,29.56-72
					c5.85-12,11.12-16.98,22.83-16.98c10.54,0,16.68,5.56,20.2,19.02c4.1,15.22,9.95,39.81,15.81,65.56l14.34-0.29
					c7.9,0,13.46,4.1,13.46,11.12c0,6.44-3.8,11.42-14.05,12.88l-8.2,1.17l12.59,56.2c2.63,12.29-0.88,21.95-14.34,21.95
					c-7.61,0-12-5.27-14.05-13.76c-3.81-15.51-8.78-37.76-13.76-61.17c-14.63,1.46-29.85,2.93-43.03,3.81
					c-9.66,27.51-17.85,51.22-23.42,65.86c-4.1,11.12-9.66,15.22-16.98,15.22C826.34,269.15,820.2,259.2,823.71,248.37z
					 M914.74,157.35l-9.95-46.83l-16.98,48.29L914.74,157.35z"/>
				<path class="st10" d="M973.86,213.25c0-24.88,34.54-37.46,76.98-43.32c-0.29-32.78-5.56-42.44-13.46-42.44
					c-9.37,0-19.02,9.37-27.22,26.64c-4.39,8.78-8.78,13.76-17.27,13.76c-9.66,0-16.39-5.85-16.39-15.51
					c0-21.95,37.17-52.98,67.61-52.98c29.56,0,35.71,33.07,36.29,67.32h1.76c9.95-0.59,16.98,3.22,16.98,11.71
					c0,9.07-5.56,12.29-15.51,13.17l-3.8,0.29c-0.88,12.59-2.63,23.42-4.68,32.78c-6.15,27.22-15.81,30.73-34.54,30.73
					C1006.64,255.4,973.86,236.37,973.86,213.25z M1035.62,228.76c6.73,0,9.66-2.93,11.71-12.59c0.88-4.39,2.05-12.29,2.63-20.49
					c-31.03,4.98-43.03,11.12-43.03,17.27C1006.94,219.69,1020.69,228.76,1035.62,228.76z"/>
			</g>
		</g>
		<g>
			<g>
				<path class="st10" d="M1246.41,348.08v-0.18c-1.26-0.12-2.04-0.96-2.1-2.7c-0.12-3-0.18-8.34-0.18-13.92
					c-2.4,0.3-3.24-0.9-3.24-2.28c0-1.2,0.78-2.1,2.64-2.4l0.6-0.12c0.06-6.72,0.18-13.26,0.36-16.86c0.06-2.1,1.02-3.24,2.82-3.24
					c1.8,0,2.64,1.02,2.58,3.24v1.02c8.88-0.18,18.48,2.76,18.48,8.1c0,3.48-4.62,6.54-10.08,8.76c7.08,1.08,13.62,4.32,13.62,9.48
					c0,8.46-15.18,13.5-22.74,13.5C1247.43,350.48,1246.35,349.7,1246.41,348.08z M1249.11,345.69c9.42-0.78,17.34-4.74,17.34-8.52
					c0-3.54-9.12-6.36-16.98-6.3c-0.12,6.6-0.3,12.66-0.36,14.28l-0.06,0.54H1249.11z M1262.85,319.11c0-2.22-6.06-3.96-13.08-3.84
					l-0.18,10.26C1259.19,323.43,1262.85,320.85,1262.85,319.11z"/>
				<path class="st10" d="M1273.95,333.27c0-9.06,3.3-15.36,5.52-19.02c1.68-2.76,3-3.6,4.8-3.6c1.44,0,2.64,0.96,2.64,2.58v0.06
					c0.3-0.06,0.48-0.06,0.66-0.06c7.62,0,10.68,6.36,10.68,13.14c0,10.56-5.76,20.94-14.4,20.94
					C1276.47,347.3,1273.95,340.29,1273.95,333.27z M1284.57,342.45c5.28,0,8.4-9.18,8.46-15.96c0-3.78-1.26-8.94-6.9-8.94
					c-0.66,0-1.56,0.06-2.7,0.42c-2.1,3-4.08,8.82-4.08,15.24C1279.35,338.61,1281.03,342.45,1284.57,342.45z"/>
				<path class="st10" d="M1302.39,343.95c-0.12-7.2,0.54-19.38,1.32-29.82c0.18-2.46,1.2-3.42,2.94-3.42
					c1.62,0,2.76,1.08,2.58,3.42c-0.54,6.48-1.32,18.24-1.74,27.6c4.32-1.26,13.32-3.18,16.08-3.24c1.68-0.06,2.46,0.72,2.46,1.86
					c0,0.96-0.66,1.68-1.98,2.04c-5.34,1.38-12.48,3.42-16.86,4.92C1304.19,348.32,1302.39,347,1302.39,343.95z"/>
				<path class="st10" d="M1327.29,345.14c-0.18-4.68,0.06-18.54,0.3-28.92l-1.62-0.18c-1.86-0.18-2.7-0.96-2.7-2.46
					c0-1.32,0.78-2.34,2.7-2.28l1.68,0.06c0.06-0.54,0.06-1.02,0.06-1.44c0.06-1.98,1.26-2.94,2.76-2.94c2.04,0,2.76,1.38,2.7,3.06
					l-0.06,1.86c10.86,1.5,20.1,5.82,20.1,13.26c0,9.66-14.94,24.06-22.68,24.06C1328.43,349.22,1327.41,348.32,1327.29,345.14z
					 M1332.93,343.53c2.76,0,14.88-10.02,14.88-17.76c0-4.62-4.98-7.32-14.88-8.88c-0.24,8.82-0.66,20.34-0.72,24.96
					C1332.15,343.23,1332.33,343.53,1332.93,343.53z"/>
			</g>
			<g>
				<path class="st10" d="M1161.94,246.62c4.39-14.05,11.12-32.78,18.44-52.39l-6.44,0.29c-14.34,0.88-21.66-7.9-21.66-16.98
					c0-7.9,4.39-14.34,14.93-15.81c6.44-0.88,15.22-1.76,26.34-2.63c12.29-31.32,24-59.71,28.68-69.08
					c6.73-14.05,12.88-19.61,25.76-19.61c12.59,0,19.61,6.44,23.71,22.54c3.81,13.76,9.07,36.59,14.63,61.47l12.59-0.29
					c9.66-0.29,15.51,4.98,15.51,13.17c0,7.02-4.39,12.88-15.81,14.63l-6.15,0.88l11.42,52.1c3.22,14.63-0.29,25.76-16.39,25.76
					c-8.78,0-14.05-6.73-16.1-15.22c-3.81-15.22-8.2-36.29-12.59-58.25c-14.34,1.76-27.81,2.93-40.68,4.1
					c-8.49,25.46-16.39,48.59-21.37,62.05c-4.68,12.88-11.42,16.68-19.61,16.68C1165.16,270.03,1158.13,259.2,1161.94,246.62z
					 M1252.38,155.88l-8.2-40.68l-14.34,41.86L1252.38,155.88z"/>
				<path class="st10" d="M1313.26,213.54c0-25.17,33.95-38.64,75.22-44.78c-0.29-27.81-4.39-36.59-11.42-36.59
					c-7.61,0-15.51,7.32-23.12,22.24c-4.98,9.37-10.24,14.93-19.32,14.93c-11.12,0-19.02-6.73-19.02-17.85
					c0-24.59,38.93-52.68,69.37-52.68c29.85,0,36.88,32.2,37.76,66.44c12-0.88,19.02,3.51,19.02,13.76
					c0,10.54-6.15,14.34-18.15,15.51c-0.29,0-0.88,0-1.76,0.29c-0.88,11.42-2.34,21.07-4.68,30.44
					c-6.15,26.05-15.81,31.32-35.12,31.32C1345.75,256.57,1313.26,237.54,1313.26,213.54z M1374.72,225.84
					c6.15,0,8.49-2.34,10.54-12.59c0.88-4.1,1.46-8.49,2.05-14.34c-24,3.81-35.12,8.49-35.12,14.34
					C1352.19,218.81,1363.02,225.84,1374.72,225.84z"/>
			</g>
		</g>
	</g>
	<g>
		<path class="st10" d="M161.44,665.62c-6.48-0.54-10.8-4.59-11.34-13.5c-0.54-13.23-0.81-35.1-0.81-58.86
			c-9.99,0.27-14.31-5.94-14.31-12.42c0-6.21,4.05-10.53,14.31-12.42c0-29.16,0.54-57.78,1.35-73.71
			c0.27-10.53,5.67-16.47,15.66-16.47c8.91,0,14.04,4.86,13.77,16.47v1.35c39.15-0.81,82.08,12.69,82.08,36.99
			c0,16.2-18.63,29.7-41.58,39.96c30.24,5.4,57.78,19.98,57.78,42.93c0,39.42-69.39,61.83-102.06,61.83
			C167.11,677.77,161.71,673.45,161.44,665.62z M176.56,651.31c36.18-2.97,72.09-19.17,72.09-34.29c0-14.04-35.37-25.65-70.74-25.92
			l-1.62,60.21H176.56z M232.99,535.74c0-8.91-25.65-15.39-53.46-15.12l-0.81,42.12C218.14,553.56,232.99,542.49,232.99,535.74z"/>
		<path class="st10" d="M276.99,655.09c4.59-14.04,11.61-33.21,19.17-53.19l-10.26,0.54c-10.8,0.54-16.74-5.94-16.74-13.23
			c0-6.21,2.97-11.34,12.15-12.69c6.21-0.81,14.85-1.62,25.38-2.43c11.61-29.97,22.68-56.7,27.27-66.42
			c5.4-11.07,10.26-15.66,21.06-15.66c9.72,0,15.39,5.13,18.63,17.55c3.78,14.04,9.18,36.72,14.58,60.48l13.23-0.27
			c7.29,0,12.42,3.78,12.42,10.26c0,5.94-3.51,10.53-12.96,11.88l-7.56,1.08l11.61,51.84c2.43,11.34-0.81,20.25-13.23,20.25
			c-7.02,0-11.07-4.86-12.96-12.69c-3.51-14.31-8.1-34.83-12.69-56.43c-13.5,1.35-27.54,2.7-39.69,3.51
			c-8.91,25.38-16.47,47.25-21.6,60.75c-3.78,10.26-8.91,14.04-15.66,14.04C279.42,674.26,273.75,665.08,276.99,655.09z
			 M360.96,571.11l-9.18-43.2l-15.66,44.55L360.96,571.11z"/>
		<path class="st10" d="M429,650.77c-11.88-1.89-20.52-7.02-20.52-18.09c0-6.75,3.51-12.15,8.91-18.36
			c26.73-30.51,70.74-79.65,81.27-90.45c-28.08,2.97-60.48,5.94-70.47,6.21c-9.45,0-15.66-5.13-15.66-14.04
			c0-7.29,5.67-11.88,12.42-12.69c13.77-1.62,78.57-5.67,93.69-5.94c17.01,0,23.22,15.66,11.88,29.16
			c-18.09,21.6-68.31,77.76-84.78,97.2c32.4,5.94,75.87,13.5,89.64,16.2c7.29,1.62,10.53,5.67,10.53,11.07
			c0,6.48-4.59,12.69-13.23,12.42C512.98,662.11,457.62,655.36,429,650.77z"/>
		<path class="st10" d="M534.03,656.98l15.66-63.45l-5.67,0.54c-11.07,1.35-17.28-5.13-17.28-12.69c0-6.21,3.78-11.34,12.15-12.69
			l17.01-1.62l9.45-39.96c1.62-8.1,6.48-13.23,13.77-13.23c1.89,0,4.05,0.54,5.4,1.08l3.78-10.8c5.13-12.96,11.61-17.28,20.25-17.28
			c9.99,0,17.01,4.86,19.98,16.2c3.51,14.04,8.37,35.64,13.23,58.05l12.96-0.27c7.56,0,12.69,3.78,12.69,10.8
			c0,5.94-3.78,10.8-12.96,11.61l-7.83,0.81l11.34,53.46c1.89,9.99-2.16,17.55-12.42,17.55c-7.83,0-11.61-4.59-13.23-11.61
			c-3.78-15.12-7.83-35.91-11.88-56.97l-36.72,3.51c-8.37,25.65-16.2,49.95-24.03,71.82c-2.7,8.1-6.21,12.42-13.77,12.42
			C537.81,674.26,531.33,667.78,534.03,656.98z M615.57,562.74c-2.7-14.04-5.67-28.35-8.64-40.77l-14.58,42.12L615.57,562.74z"/>
		<path class="st10" d="M665.79,655.09c4.59-14.04,11.61-33.21,19.17-53.19l-10.26,0.54c-10.8,0.54-16.74-5.94-16.74-13.23
			c0-6.21,2.97-11.34,12.15-12.69c6.21-0.81,14.85-1.62,25.38-2.43c11.61-29.97,22.68-56.7,27.27-66.42
			c5.4-11.07,10.26-15.66,21.06-15.66c9.72,0,15.39,5.13,18.63,17.55c3.78,14.04,9.18,36.72,14.58,60.48l13.23-0.27
			c7.29,0,12.42,3.78,12.42,10.26c0,5.94-3.51,10.53-12.96,11.88l-7.56,1.08l11.61,51.84c2.43,11.34-0.81,20.25-13.23,20.25
			c-7.02,0-11.07-4.86-12.96-12.69c-3.51-14.31-8.1-34.83-12.69-56.43c-13.5,1.35-27.54,2.7-39.69,3.51
			c-8.91,25.38-16.47,47.25-21.6,60.75c-3.78,10.26-8.91,14.04-15.66,14.04C668.22,674.26,662.55,665.08,665.79,655.09z
			 M749.76,571.11l-9.18-43.2l-15.66,44.55L749.76,571.11z"/>
		<path class="st10" d="M845.61,614.31c-0.27,20.52-0.81,38.34-1.08,46.71c-0.54,9.99-4.59,15.93-13.23,15.93
			c-7.83,0-12.96-4.05-13.23-14.85c-0.27-13.5-0.54-37.8-0.54-63.18c-0.27-0.27-1.08-0.81-1.62-1.08
			c-6.75-3.78-8.91-6.75-8.91-12.15c0-5.4,2.16-9.18,10.8-11.34c0-30.51,0.27-61.02,0.54-78.57c0-11.88,6.75-17.55,15.39-17.55
			c8.91,0,14.04,5.94,14.04,15.93v4.05c37.26,2.97,82.89,19.17,82.89,44.01c0,22.41-28.08,36.99-71.01,49.41
			c18.09,9.45,40.23,21.33,63.99,34.83c7.83,4.59,11.07,8.37,11.07,14.31c0,9.72-10.26,17.28-22.41,10.53L845.61,614.31z
			 M900.15,544.11c0-8.91-21.33-16.2-52.92-19.17l-0.81,44.55C876.12,563.01,900.15,552.21,900.15,544.11z"/>
		<path class="st10" d="M1078.35,658.87c0.27-10.8,1.08-32.4,2.43-58.05l-50.76,5.94c-0.81,21.6-1.35,41.58-2.16,55.35
			c-0.54,10.8-4.05,16.74-13.5,16.74c-8.1,0-12.15-5.67-12.42-13.5c-0.54-9.45-0.81-31.05-0.81-54.81
			c-1.35,0.27-2.16,0.54-2.97,0.54c-11.88,1.62-18.09-4.32-18.09-13.5c0-7.83,5.67-11.34,12.15-12.69l8.91-1.62
			c0.27-28.62,0.54-55.08,1.08-65.88c0.54-11.61,7.02-17.28,15.66-17.28c8.37,0,14.58,4.32,14.58,16.2c0,8.1-0.54,34.02-1.62,63.18
			c16.47-1.89,34.56-3.51,51.3-4.86l4.86-84.24c0.54-11.88,6.48-18.09,15.93-18.09c10.53,0,15.12,7.02,14.31,18.09l-5.67,82.08
			l12.15-0.27c8.64,0,14.58,3.24,14.58,11.61c0,7.02-5.13,11.61-14.04,12.42l-14.58,1.35l-4.86,61.02
			c-1.08,9.72-5.13,15.39-13.5,15.39C1082.13,673.99,1078.08,668.05,1078.35,658.87z"/>
		<path class="st10" d="M1127.76,655.09c4.59-14.04,11.61-33.21,19.17-53.19l-10.26,0.54c-10.8,0.54-16.74-5.94-16.74-13.23
			c0-6.21,2.97-11.34,12.15-12.69c6.21-0.81,14.85-1.62,25.38-2.43c11.61-29.97,22.68-56.7,27.27-66.42
			c5.4-11.07,10.26-15.66,21.06-15.66c9.72,0,15.39,5.13,18.63,17.55c3.78,14.04,9.18,36.72,14.58,60.48l13.23-0.27
			c7.29,0,12.42,3.78,12.42,10.26c0,5.94-3.51,10.53-12.96,11.88l-7.56,1.08l11.61,51.84c2.43,11.34-0.81,20.25-13.23,20.25
			c-7.02,0-11.07-4.86-12.96-12.69c-3.51-14.31-8.1-34.83-12.69-56.43c-13.5,1.35-27.54,2.7-39.69,3.51
			c-8.91,25.38-16.47,47.25-21.6,60.75c-3.78,10.26-8.91,14.04-15.66,14.04C1130.19,674.26,1124.52,665.08,1127.76,655.09z
			 M1211.73,571.11l-9.18-43.2l-15.66,44.55L1211.73,571.11z"/>
		<path class="st10" d="M1266.27,657.79c0-8.1,5.13-12.69,12.42-12.69c7.83,0,12.96,4.32,25.92,4.32
			c25.65,0,50.49-14.85,50.49-30.24c0-5.67-3.24-7.29-11.34-7.29c-8.64,0-25.92,1.62-45.9,1.62c-23.22,0-31.86-11.34-31.86-28.62
			c0-41.85,49.14-97.74,82.08-97.74c23.76,0,34.29,29.43,34.29,53.46c0,12.42-6.21,19.17-16.2,19.17
			c-11.88,0-15.39-8.37-15.39-18.36c0-15.12-1.62-25.65-9.18-25.65c-14.58,0-45.36,40.23-45.36,60.48c0,6.75,3.51,9.18,14.31,9.18
			c11.34,0,31.32-1.62,43.47-1.62c20.25,0,30.51,10.53,30.51,28.89c0,39.15-39.15,64.26-82.08,64.26
			C1279.5,676.96,1266.27,669.94,1266.27,657.79z"/>
		<path class="st10" d="M142.81,906.98c-9.18-2.97-12.42-7.56-12.42-14.85c0-6.21,2.97-11.07,10.53-17.01
			c27.27-22.14,78.03-64.53,78.03-93.96c0-10.26-5.13-16.2-14.58-16.2c-14.04,0-25.92,12.15-35.1,31.32
			c-4.86,8.37-8.91,13.23-17.28,13.23s-14.31-5.13-14.31-14.58c0-22.68,37.26-58.59,72.63-58.59c30.51,0,39.96,19.71,39.96,40.23
			c0,35.37-41.58,77.22-77.49,106.65c26.46,5.67,62.91,14.31,76.14,18.09c6.75,2.16,9.99,5.67,9.99,11.61
			c0,7.29-5.67,12.96-15.39,11.61C224.62,921.83,151.99,910.22,142.81,906.98z"/>
		<path class="st10" d="M312.63,904.82c5.67-14.58,14.31-37.8,20.79-62.37c-13.77,14.31-27.54,19.17-40.23,19.17
			c-23.76,0-35.91-18.09-35.91-45.09c0-56.16,36.72-83.7,65.61-83.7c32.13,0,46.98,23.22,46.98,56.97
			c0,43.74-18.63,97.2-28.89,120.69c-4.05,9.18-7.83,15.66-16.74,15.66C314.52,926.15,307.23,918.59,312.63,904.82z M298.59,833.8
			c9.99,0,17.28-6.75,27.27-21.6c4.05-5.94,9.72-7.83,14.58-6.48c0.54-5.13,0.81-9.99,0.81-14.58c0-22.68-7.29-32.67-20.79-32.67
			c-18.9,0-33.21,29.16-33.21,55.89C287.25,827.86,291.03,833.8,298.59,833.8z"/>
		<path class="st10" d="M413.61,747.13c4.05-9.18,8.91-16.47,18.63-16.47c9.99,0,15.66,8.37,11.88,19.17
			c-6.21,15.66-14.04,34.02-20.52,52.38c11.88-12.15,25.92-18.63,39.15-18.63c22.68,0,35.64,17.82,35.64,45.9
			c0,46.44-35.91,87.75-73.17,87.75c-31.32,0-44.55-23.22-44.28-53.46C381.21,827.59,399.84,778.45,413.61,747.13z M413.07,838.66
			c-1.62,7.83-2.7,15.39-2.7,22.41c0,18.63,5.94,29.16,18.09,29.16c22.68,0,40.5-31.59,40.5-57.51c0-15.93-7.83-19.98-14.04-19.98
			c-6.48,0-14.85,4.59-27.81,21.33C422.52,839.74,417.12,840.55,413.07,838.66z"/>
		<path class="st10" d="M567.24,897.26c-0.27-38.07,2.43-85.86,5.94-131.22c0.81-12.96,6.21-18.9,15.93-18.9
			c8.91,0,15.12,5.67,14.31,17.55c-2.16,28.35-5.94,76.14-7.83,117.99c19.17-5.13,52.65-11.88,66.15-12.69
			c10.26-0.54,15.12,3.51,15.12,10.53c0,5.4-3.78,9.45-11.07,11.34c-20.79,5.4-54,14.85-73.71,21.6
			C575.07,919.4,567.24,911.3,567.24,897.26z"/>
		<path class="st10" d="M682.53,879.17l-0.27-21.33c-9.99,2.16-17.01-4.05-17.01-12.42c0-5.94,2.7-9.72,8.64-11.88l8.64-2.43
			l0.54-51.3h-7.83c-8.91-0.27-14.04-5.13-14.04-12.42c0-7.56,4.59-11.34,12.15-12.42l9.99-0.81v-7.02
			c0-11.34,4.32-18.09,15.39-18.09c8.1,0,14.31,4.32,14.04,16.2c0,1.89,0,4.59-0.27,8.1c23.76-0.54,52.38-0.81,72.63-0.27
			c7.83,0,14.58,3.24,14.58,11.07c-0.27,7.83-6.21,11.07-14.85,11.34c-12.42,0.81-44.82,2.7-72.9,3.78l-0.81,44.82
			c29.16-6.75,66.42-14.85,74.52-15.39c6.48-0.27,11.07,3.51,11.34,9.45c0.27,6.48-4.05,10.8-11.34,12.96
			c-21.06,6.48-51.57,14.58-75.06,20.25v20.52c0,15.66,3.78,19.71,15.66,19.71c14.04,0,36.18-5.13,52.38-9.45
			c9.45-2.16,15.66,2.7,15.66,10.26c0,4.86-3.24,10.26-11.61,13.5c-20.25,7.83-48.87,12.96-66.42,12.96
			C689.82,918.86,682.8,905.09,682.53,879.17z"/>
		<path class="st10" d="M839.12,901.04c-4.32-29.16-6.75-47.52-9.18-77.49c-0.81-9.99,2.7-16.47,10.53-18.09l0.27-35.1l-26.19,3.24
			c-13.23,1.62-20.52-4.86-20.52-14.31c0-7.56,4.86-11.34,12.15-12.96c21.33-4.05,76.68-8.1,114.21-8.91
			c9.18,0,14.58,3.51,14.58,11.07c0,7.02-4.86,11.34-14.04,12.42l-48.6,5.94c-0.54,27.27-2.97,92.34-5.94,134.73
			c-1.08,10.8-5.94,14.31-13.77,14.31C843.17,915.89,840.2,909.14,839.12,901.04z"/>
		<path class="st10" d="M956.3,905.36c-0.81-18.63,0.27-85.59,1.08-120.15l-34.29,5.13c-12.96,1.62-19.71-4.32-19.71-14.04
			c0-7.29,4.86-11.88,12.42-13.23c9.18-1.62,25.38-4.05,44.01-6.21c2.7-5.67,8.37-8.64,14.58-8.64c5.4,0.27,9.45,1.62,12.15,5.94
			c14.04-1.35,28.08-2.43,40.77-3.24c9.72-0.54,14.85,3.24,14.85,11.07c0,6.75-4.59,10.8-13.77,12.15l-39.69,6.21
			c-1.08,31.05-3.51,88.02-6.21,125.28c-1.08,10.8-6.48,14.31-13.23,14.31C960.62,919.94,956.57,915.08,956.3,905.36z"/>
		<path class="st10" d="M1047.02,879.17l-0.27-21.33c-9.99,2.16-17.01-4.05-17.01-12.42c0-5.94,2.7-9.72,8.64-11.88l8.64-2.43
			l0.54-51.3h-7.83c-8.91-0.27-14.04-5.13-14.04-12.42c0-7.56,4.59-11.34,12.15-12.42l9.99-0.81v-7.02
			c0-11.34,4.32-18.09,15.39-18.09c8.1,0,14.31,4.32,14.04,16.2c0,1.89,0,4.59-0.27,8.1c23.76-0.54,52.38-0.81,72.63-0.27
			c7.83,0,14.58,3.24,14.58,11.07c-0.27,7.83-6.21,11.07-14.85,11.34c-12.42,0.81-44.82,2.7-72.9,3.78l-0.81,44.82
			c29.16-6.75,66.42-14.85,74.52-15.39c6.48-0.27,11.07,3.51,11.34,9.45c0.27,6.48-4.05,10.8-11.34,12.96
			c-21.06,6.48-51.57,14.58-75.06,20.25v20.52c0,15.66,3.78,19.71,15.66,19.71c14.04,0,36.18-5.13,52.38-9.45
			c9.45-2.16,15.66,2.7,15.66,10.26c0,4.86-3.24,10.26-11.61,13.5c-20.25,7.83-48.87,12.96-66.42,12.96
			C1054.31,918.86,1047.29,905.09,1047.02,879.17z"/>
		<path class="st10" d="M1202.27,864.31c-0.27,20.52-0.81,38.34-1.08,46.71c-0.54,9.99-4.59,15.93-13.23,15.93
			c-7.83,0-12.96-4.05-13.23-14.85c-0.27-13.5-0.54-37.8-0.54-63.18c-0.27-0.27-1.08-0.81-1.62-1.08
			c-6.75-3.78-8.91-6.75-8.91-12.15c0-5.4,2.16-9.18,10.8-11.34c0-30.51,0.27-61.02,0.54-78.57c0-11.88,6.75-17.55,15.39-17.55
			c8.91,0,14.04,5.94,14.04,15.93v4.05c37.26,2.97,82.89,19.17,82.89,44.01c0,22.41-28.08,36.99-71.01,49.41
			c18.09,9.45,40.23,21.33,63.99,34.83c7.83,4.59,11.07,8.37,11.07,14.31c0,9.72-10.26,17.28-22.41,10.53L1202.27,864.31z
			 M1256.81,794.11c0-8.91-21.33-16.2-52.92-19.17l-0.81,44.55C1232.78,813.01,1256.81,802.21,1256.81,794.11z"/>
		<path class="st10" d="M1290.56,907.79c0-8.1,5.13-12.69,12.42-12.69c7.83,0,12.96,4.32,25.92,4.32
			c25.65,0,50.49-14.85,50.49-30.24c0-5.67-3.24-7.29-11.34-7.29c-8.64,0-25.92,1.62-45.9,1.62c-23.22,0-31.86-11.34-31.86-28.62
			c0-41.85,49.14-97.74,82.08-97.74c23.76,0,34.29,29.43,34.29,53.46c0,12.42-6.21,19.17-16.2,19.17
			c-11.88,0-15.39-8.37-15.39-18.36c0-15.12-1.62-25.65-9.18-25.65c-14.58,0-45.36,40.23-45.36,60.48c0,6.75,3.51,9.18,14.31,9.18
			c11.34,0,31.32-1.62,43.47-1.62c20.25,0,30.51,10.53,30.51,28.89c0,39.15-39.15,64.26-82.08,64.26
			C1303.79,926.96,1290.56,919.94,1290.56,907.79z"/>
		<path class="st10" d="M1412.86,946.94c3.24-21.6,6.48-48.06,7.83-67.23c0.54-11.61,6.75-17.28,15.12-17.28
			c10.8,0,14.85,7.56,14.85,16.74c0,17.82-9.72,59.4-15.93,72.9c-2.7,5.94-5.67,8.64-11.34,8.64
			C1416.1,960.71,1411.51,955.58,1412.86,946.94z"/>
		<path class="st10" d="M131.19,1155.36c0-7.56,6.75-12.42,16.2-12.96c39.15-1.62,70.2-16.2,70.2-26.19
			c0-9.18-17.55-17.01-64.26-22.68c-9.99-1.35-14.31-5.4-14.31-12.42c0-5.13,2.7-8.64,7.83-12.96
			c17.28-14.85,48.87-39.15,67.77-54.27c-20.25,1.35-49.68,3.78-59.13,4.05c-11.07,0.27-16.47-4.86-16.47-12.96
			c0-6.75,3.78-11.61,14.04-12.69c11.34-1.08,54.81-3.51,81-2.7c11.07,0.27,16.2,5.13,16.47,13.23c0.27,7.56-4.59,13.5-13.23,21.33
			c-12.42,11.61-37.8,32.67-56.7,48.33c39.69,5.94,68.04,19.71,68.04,41.31c0,35.91-65.88,56.16-99.63,56.16
			C137.67,1169.94,130.92,1164,131.19,1155.36z"/>
		<path class="st10" d="M254.04,1141.05c0-15.66,13.77-30.51,31.05-45.09c-21.06-14.31-31.59-25.11-31.59-43.47
			c0-31.59,38.61-68.04,70.47-68.04c17.28,0,28.08,6.48,34.56,15.12c14.04,6.48,18.63,17.82,18.63,26.19
			c0,24.57-24.84,46.98-48.87,66.15c20.25,13.23,32.4,24.57,32.4,39.42c0,23.22-24.3,42.39-60.21,42.39
			C269.43,1173.72,254.04,1159.41,254.04,1141.05z M306.96,1078.4c17.55-13.77,33.75-27.27,39.69-40.23
			c-7.56-1.62-9.72-7.02-10.8-13.23c-1.89-10.53-7.29-14.58-15.66-14.58c-14.31,0-37.8,22.68-37.8,39.96
			C282.39,1059.5,288.33,1066.25,306.96,1078.4z M302.1,1150.5c20.79,0,29.7-8.64,29.7-16.74c0-7.29-8.91-13.5-25.92-24.3
			c-13.23,10.8-23.22,20.25-23.22,28.35C282.66,1145.1,289.41,1150.5,302.1,1150.5z"/>
		<path class="st10" d="M421.44,1155.09c4.59-14.04,11.61-33.21,19.17-53.19l-10.26,0.54c-10.8,0.54-16.74-5.94-16.74-13.23
			c0-6.21,2.97-11.34,12.15-12.69c6.21-0.81,14.85-1.62,25.38-2.43c11.61-29.97,22.68-56.7,27.27-66.42
			c5.4-11.07,10.26-15.66,21.06-15.66c9.72,0,15.39,5.13,18.63,17.55c3.78,14.04,9.18,36.72,14.58,60.48l13.23-0.27
			c7.29,0,12.42,3.78,12.42,10.26c0,5.94-3.51,10.53-12.96,11.88l-7.56,1.08l11.61,51.84c2.43,11.34-0.81,20.25-13.23,20.25
			c-7.02,0-11.07-4.86-12.96-12.69c-3.51-14.31-8.1-34.83-12.69-56.43c-13.5,1.35-27.54,2.7-39.69,3.51
			c-8.91,25.38-16.47,47.25-21.6,60.75c-3.78,10.26-8.91,14.04-15.66,14.04C423.87,1174.26,418.2,1165.08,421.44,1155.09z
			 M505.41,1071.11l-9.18-43.2l-15.66,44.55L505.41,1071.11z"/>
		<path class="st10" d="M569.4,1147.26c-0.27-38.07,2.43-85.86,5.94-131.22c0.81-12.96,6.21-18.9,15.93-18.9
			c8.91,0,15.12,5.67,14.31,17.55c-2.16,28.35-5.94,76.14-7.83,117.99c19.17-5.13,52.65-11.88,66.15-12.69
			c10.26-0.54,15.12,3.51,15.12,10.53c0,5.4-3.78,9.45-11.07,11.34c-20.79,5.4-54,14.85-73.71,21.6
			C577.23,1169.4,569.4,1161.3,569.4,1147.26z"/>
		<path class="st10" d="M696.84,1155.36c-0.81-18.63,0.27-85.59,1.08-120.15l-34.29,5.13c-12.96,1.62-19.71-4.32-19.71-14.04
			c0-7.29,4.86-11.88,12.42-13.23c9.18-1.62,25.38-4.05,44.01-6.21c2.7-5.67,8.37-8.64,14.58-8.64c5.4,0.27,9.45,1.62,12.15,5.94
			c14.04-1.35,28.08-2.43,40.77-3.24c9.72-0.54,14.85,3.24,14.85,11.07c0,6.75-4.59,10.8-13.77,12.15l-39.69,6.21
			c-1.08,31.05-3.51,88.02-6.21,125.28c-1.08,10.8-6.48,14.31-13.23,14.31C701.16,1169.94,697.11,1165.08,696.84,1155.36z"/>
		<path class="st10" d="M787.56,1129.17l-0.27-21.33c-9.99,2.16-17.01-4.05-17.01-12.42c0-5.94,2.7-9.72,8.64-11.88l8.64-2.43
			l0.54-51.3h-7.83c-8.91-0.27-14.04-5.13-14.04-12.42c0-7.56,4.59-11.34,12.15-12.42l9.99-0.81v-7.02
			c0-11.34,4.32-18.09,15.39-18.09c8.1,0,14.31,4.32,14.04,16.2c0,1.89,0,4.59-0.27,8.1c23.76-0.54,52.38-0.81,72.63-0.27
			c7.83,0,14.58,3.24,14.58,11.07c-0.27,7.83-6.21,11.07-14.85,11.34c-12.42,0.81-44.82,2.7-72.9,3.78l-0.81,44.82
			c29.16-6.75,66.42-14.85,74.52-15.39c6.48-0.27,11.07,3.51,11.34,9.45c0.27,6.48-4.05,10.8-11.34,12.96
			c-21.06,6.48-51.57,14.58-75.06,20.25v20.52c0,15.66,3.78,19.71,15.66,19.71c14.04,0,36.18-5.13,52.38-9.45
			c9.45-2.16,15.66,2.7,15.66,10.26c0,4.86-3.24,10.26-11.61,13.5c-20.25,7.83-48.87,12.96-66.42,12.96
			C794.85,1168.86,787.83,1155.09,787.56,1129.17z"/>
		<path class="st10" d="M942.81,1114.31c-0.27,20.52-0.81,38.34-1.08,46.71c-0.54,9.99-4.59,15.93-13.23,15.93
			c-7.83,0-12.96-4.05-13.23-14.85c-0.27-13.5-0.54-37.8-0.54-63.18c-0.27-0.27-1.08-0.81-1.62-1.08
			c-6.75-3.78-8.91-6.75-8.91-12.15c0-5.4,2.16-9.18,10.8-11.34c0-30.51,0.27-61.02,0.54-78.57c0-11.88,6.75-17.55,15.39-17.55
			c8.91,0,14.04,5.94,14.04,15.93v4.05c37.26,2.97,82.89,19.17,82.89,44.01c0,22.41-28.08,36.99-71.01,49.41
			c18.09,9.45,40.23,21.33,63.99,34.83c7.83,4.59,11.07,8.37,11.07,14.31c0,9.72-10.26,17.28-22.41,10.53L942.81,1114.31z
			 M997.35,1044.11c0-8.91-21.33-16.2-52.92-19.17l-0.81,44.55C973.32,1063.01,997.35,1052.21,997.35,1044.11z"/>
		<path class="st10" d="M1061.88,1167.24c-4.32-15.39-25.92-89.91-28.62-109.35c-1.08-9.99,4.59-16.2,13.5-16.2
			c5.4,0,10.26,2.7,12.42,13.5l8.64,42.93c-0.27-25.38-0.27-51.3,0.27-76.41c0.54-17.55,7.29-24.03,17.01-24.03
			c7.83,0,14.04,5.67,20.25,18.36c19.71,40.77,33.75,69.12,45.09,91.26c2.7-34.56,6.48-86.94,7.56-105.57
			c0.81-13.5,6.75-17.82,14.58-17.82c9.45,0,14.04,5.94,13.5,18.63c-1.89,30.78-7.29,87.75-11.61,119.07
			c-2.97,21.33-8.91,27.81-19.17,27.81c-8.91,0-14.31-4.86-20.79-16.74c-10.8-19.71-26.46-53.73-42.93-86.13l-2.16,115.83
			c-0.27,10.8-4.86,16.47-14.04,16.47C1069.17,1178.85,1064.31,1175.88,1061.88,1167.24z"/>
		<path class="st10" d="M1192.82,1155.09c4.59-14.04,11.61-33.21,19.17-53.19l-10.26,0.54c-10.8,0.54-16.74-5.94-16.74-13.23
			c0-6.21,2.97-11.34,12.15-12.69c6.21-0.81,14.85-1.62,25.38-2.43c11.61-29.97,22.68-56.7,27.27-66.42
			c5.4-11.07,10.26-15.66,21.06-15.66c9.72,0,15.39,5.13,18.63,17.55c3.78,14.04,9.18,36.72,14.58,60.48l13.23-0.27
			c7.29,0,12.42,3.78,12.42,10.26c0,5.94-3.51,10.53-12.96,11.88l-7.56,1.08l11.61,51.84c2.43,11.34-0.81,20.25-13.23,20.25
			c-7.02,0-11.07-4.86-12.96-12.69c-3.51-14.31-8.1-34.83-12.69-56.43c-13.5,1.35-27.54,2.7-39.69,3.51
			c-8.91,25.38-16.47,47.25-21.6,60.75c-3.78,10.26-8.91,14.04-15.66,14.04C1195.25,1174.26,1189.58,1165.08,1192.82,1155.09z
			 M1276.8,1071.11l-9.18-43.2l-15.66,44.55L1276.8,1071.11z"/>
		<path class="st10" d="M1365.36,1155.36c-0.81-18.63,0.27-85.59,1.08-120.15l-34.29,5.13c-12.96,1.62-19.71-4.32-19.71-14.04
			c0-7.29,4.86-11.88,12.42-13.23c9.18-1.62,25.38-4.05,44.01-6.21c2.7-5.67,8.37-8.64,14.58-8.64c5.4,0.27,9.45,1.62,12.15,5.94
			c14.04-1.35,28.08-2.43,40.77-3.24c9.72-0.54,14.85,3.24,14.85,11.07c0,6.75-4.59,10.8-13.77,12.15l-39.69,6.21
			c-1.08,31.05-3.51,88.02-6.21,125.28c-1.08,10.8-6.48,14.31-13.23,14.31C1369.68,1169.94,1365.63,1165.08,1365.36,1155.36z"/>
		<path class="st10" d="M1456.07,1129.17l-0.27-21.33c-9.99,2.16-17.01-4.05-17.01-12.42c0-5.94,2.7-9.72,8.64-11.88l8.64-2.43
			l0.54-51.3h-7.83c-8.91-0.27-14.04-5.13-14.04-12.42c0-7.56,4.59-11.34,12.15-12.42l9.99-0.81v-7.02
			c0-11.34,4.32-18.09,15.39-18.09c8.1,0,14.31,4.32,14.04,16.2c0,1.89,0,4.59-0.27,8.1c23.76-0.54,52.38-0.81,72.63-0.27
			c7.83,0,14.58,3.24,14.58,11.07c-0.27,7.83-6.21,11.07-14.85,11.34c-12.42,0.81-44.82,2.7-72.9,3.78l-0.81,44.82
			c29.16-6.75,66.42-14.85,74.52-15.39c6.48-0.27,11.07,3.51,11.34,9.45c0.27,6.48-4.05,10.8-11.34,12.96
			c-21.06,6.48-51.57,14.58-75.06,20.25v20.52c0,15.66,3.78,19.71,15.66,19.71c14.04,0,36.18-5.13,52.38-9.45
			c9.45-2.16,15.66,2.7,15.66,10.26c0,4.86-3.24,10.26-11.61,13.5c-20.25,7.83-48.87,12.96-66.42,12.96
			C1463.36,1168.86,1456.34,1155.09,1456.07,1129.17z"/>
		<path class="st10" d="M1570.01,1157.79c0-8.1,5.13-12.69,12.42-12.69c7.83,0,12.96,4.32,25.92,4.32
			c25.65,0,50.49-14.85,50.49-30.24c0-5.67-3.24-7.29-11.34-7.29c-8.64,0-25.92,1.62-45.9,1.62c-23.22,0-31.86-11.34-31.86-28.62
			c0-41.85,49.14-97.74,82.08-97.74c23.76,0,34.29,29.43,34.29,53.46c0,12.42-6.21,19.17-16.2,19.17
			c-11.88,0-15.39-8.37-15.39-18.36c0-15.12-1.62-25.65-9.18-25.65c-14.58,0-45.36,40.23-45.36,60.48c0,6.75,3.51,9.18,14.31,9.18
			c11.34,0,31.32-1.62,43.47-1.62c20.25,0,30.51,10.53,30.51,28.89c0,39.15-39.15,64.26-82.08,64.26
			C1583.24,1176.96,1570.01,1169.94,1570.01,1157.79z"/>
		<path class="st10" d="M1692.32,1196.94c3.24-21.6,6.48-48.06,7.83-67.23c0.54-11.61,6.75-17.28,15.12-17.28
			c10.8,0,14.85,7.56,14.85,16.74c0,17.82-9.72,59.4-15.93,72.9c-2.7,5.94-5.67,8.64-11.34,8.64
			C1695.56,1210.71,1690.97,1205.58,1692.32,1196.94z"/>
		<path class="st10" d="M187.63,1397.26c2.7-31.86,7.56-87.48,8.1-113.13c0-5.94-2.7-6.21-7.02-1.89
			c-10.8,11.61-23.76,26.46-35.64,42.12c-4.32,5.4-8.37,8.1-13.77,8.1c-11.61,0-17.82-11.88-9.72-23.76
			c11.61-16.74,29.97-36.99,47.79-52.38c14.58-12.69,20.79-16.2,29.16-16.2c11.88,0,17.55,8.64,17.55,25.11
			c0.27,35.91-4.59,109.08-7.02,131.76c-1.35,12.96-7.02,17.55-14.85,17.55C193.03,1414.54,186.55,1409.68,187.63,1397.26z"/>
		<path class="st10" d="M246.21,1406.98c-9.18-2.97-12.42-7.56-12.42-14.85c0-6.21,2.97-11.07,10.53-17.01
			c27.27-22.14,78.03-64.53,78.03-93.96c0-10.26-5.13-16.2-14.58-16.2c-14.04,0-25.92,12.15-35.1,31.32
			c-4.86,8.37-8.91,13.23-17.28,13.23s-14.31-5.13-14.31-14.58c0-22.68,37.26-58.59,72.63-58.59c30.51,0,39.96,19.71,39.96,40.23
			c0,35.37-41.58,77.22-77.49,106.65c26.46,5.67,62.91,14.31,76.14,18.09c6.75,2.16,9.99,5.67,9.99,11.61
			c0,7.29-5.67,12.96-15.39,11.61C328.03,1421.83,255.39,1410.22,246.21,1406.98z"/>
		<path class="st10" d="M405.51,1405.09c4.59-14.04,11.61-33.21,19.17-53.19l-10.26,0.54c-10.8,0.54-16.74-5.94-16.74-13.23
			c0-6.21,2.97-11.34,12.15-12.69c6.21-0.81,14.85-1.62,25.38-2.43c11.61-29.97,22.68-56.7,27.27-66.42
			c5.4-11.07,10.26-15.66,21.06-15.66c9.72,0,15.39,5.13,18.63,17.55c3.78,14.04,9.18,36.72,14.58,60.48l13.23-0.27
			c7.29,0,12.42,3.78,12.42,10.26c0,5.94-3.51,10.53-12.96,11.88l-7.56,1.08l11.61,51.84c2.43,11.34-0.81,20.25-13.23,20.25
			c-7.02,0-11.07-4.86-12.96-12.69c-3.51-14.31-8.1-34.83-12.69-56.43c-13.5,1.35-27.54,2.7-39.69,3.51
			c-8.91,25.38-16.47,47.25-21.6,60.75c-3.78,10.26-8.91,14.04-15.66,14.04C407.94,1424.26,402.27,1415.08,405.51,1405.09z
			 M489.48,1321.11l-9.18-43.2l-15.66,44.55L489.48,1321.11z"/>
		<path class="st10" d="M586.14,1369.44l-1.08,31.32c-0.54,9.99-4.59,15.66-13.23,15.66c-7.83,0-13.23-4.05-13.23-14.85
			c-0.27-12.15-0.27-29.7-0.27-48.87l-7.56-4.59c-6.48-3.78-8.64-6.48-8.64-11.88c0-6.48,3.51-9.99,16.2-11.61
			c0-28.35,0.27-57.24,0.54-74.52c0.27-12.15,6.48-17.55,15.39-17.55c7.83,0,12.69,4.59,13.77,12.42
			c38.07,3.24,83.7,19.71,83.7,44.28c0,21.6-31.86,39.96-78.84,53.46c21.06,12.69,50.22,30.78,76.41,47.79
			c7.56,4.86,11.07,9.18,11.07,14.58c0,9.45-10.53,17.01-22.14,9.72C631.5,1397.8,607.2,1382.41,586.14,1369.44z M641.49,1291.14
			c0-8.64-21.87-16.2-53.46-19.71l-0.81,47.52C616.11,1311.66,641.49,1299.78,641.49,1291.14z"/>
		<path class="st10" d="M714.93,1364.32c-0.27,20.52-0.81,38.34-1.08,46.71c-0.54,9.99-4.59,15.93-13.23,15.93
			c-7.83,0-12.96-4.05-13.23-14.85c-0.27-13.5-0.54-37.8-0.54-63.18c-0.27-0.27-1.08-0.81-1.62-1.08
			c-6.75-3.78-8.91-6.75-8.91-12.15s2.16-9.18,10.8-11.34c0-30.51,0.27-61.02,0.54-78.57c0-11.88,6.75-17.55,15.39-17.55
			c8.91,0,14.04,5.94,14.04,15.93v4.05c37.26,2.97,82.89,19.17,82.89,44.01c0,22.41-28.08,36.99-71.01,49.41
			c18.09,9.45,40.23,21.33,63.99,34.83c7.83,4.59,11.07,8.37,11.07,14.31c0,9.72-10.26,17.28-22.41,10.53L714.93,1364.32z
			 M769.47,1294.11c0-8.91-21.33-16.2-52.92-19.17l-0.81,44.55C745.44,1313.01,769.47,1302.21,769.47,1294.11z"/>
		<path class="st10" d="M807.81,1348.92c0-40.23,13.77-68.58,23.76-85.32c7.56-12.42,13.5-17.28,22.95-17.28
			c8.1,0,13.77,5.13,13.77,12.69h2.7c35.37,0,49.14,29.7,49.14,59.4c0,47.52-26.19,94.77-65.88,94.77
			C819.15,1413.19,807.81,1381.06,807.81,1348.92z M857.22,1386.19c21.87,0,34.56-37.8,34.83-66.42
			c0.27-17.55-5.4-36.72-27.81-36.72c-3.24,0-6.75,0.27-11.34,1.62c-8.1,13.77-15.66,36.99-15.66,64.53
			C837.24,1371.34,843.72,1386.19,857.22,1386.19z"/>
		<path class="st10" d="M945.51,1395.37c-6.75-32.94-11.88-96.66-10.8-124.2c0.27-13.23,5.4-19.98,16.2-19.98
			c9.45,0,14.31,6.21,14.31,18.36c-0.54,36.72,1.08,77.76,5.13,102.06c1.08,6.75,3.51,8.1,6.75,1.89
			c7.83-16.2,21.87-59.94,29.16-88.29c2.43-9.72,7.02-15.93,15.93-15.93s12.42,4.59,14.85,15.39c5.67,24.57,17.82,67.77,24.84,85.32
			c3.78,8.91,6.21,9.18,8.64,0c7.83-32.13,14.58-82.35,18.36-119.88c1.08-11.61,6.75-16.47,14.31-16.47
			c12.96,0,15.66,8.91,14.58,21.33c-3.78,41.58-16.74,112.05-24.57,136.62c-7.83,23.76-14.31,28.35-24.03,28.35
			c-9.45,0-16.2-6.48-22.68-19.44c-7.02-14.31-19.44-48.06-26.19-73.98c-7.29,23.76-18.63,53.46-28.08,71.01
			c-9.99,18.9-16.47,23.76-25.92,23.76C956.31,1421.29,949.29,1414.54,945.51,1395.37z"/>
		<path class="st10" d="M1120.74,1407.79c0-8.1,5.13-12.69,12.42-12.69c7.83,0,12.96,4.32,25.92,4.32
			c25.65,0,50.49-14.85,50.49-30.24c0-5.67-3.24-7.29-11.34-7.29c-8.64,0-25.92,1.62-45.9,1.62c-23.22,0-31.86-11.34-31.86-28.62
			c0-41.85,49.14-97.74,82.08-97.74c23.76,0,34.29,29.43,34.29,53.46c0,12.42-6.21,19.17-16.2,19.17
			c-11.88,0-15.39-8.37-15.39-18.36c0-15.12-1.62-25.65-9.18-25.65c-14.58,0-45.36,40.23-45.36,60.48c0,6.75,3.51,9.18,14.31,9.18
			c11.34,0,31.32-1.62,43.47-1.62c20.25,0,30.51,10.53,30.51,28.89c0,39.15-39.15,64.26-82.08,64.26
			C1133.97,1426.96,1120.74,1419.94,1120.74,1407.79z"/>
		<path class="st10" d="M1243.04,1446.94c3.24-21.6,6.48-48.06,7.83-67.23c0.54-11.61,6.75-17.28,15.12-17.28
			c10.8,0,14.85,7.56,14.85,16.74c0,17.82-9.72,59.4-15.93,72.9c-2.7,5.94-5.67,8.64-11.34,8.64
			C1246.28,1460.71,1241.69,1455.58,1243.04,1446.94z"/>
		<path class="st10" d="M170.62,1497.13c4.05-9.18,8.91-16.47,18.63-16.47c9.99,0,15.66,8.37,11.88,19.17
			c-6.21,15.66-14.04,34.02-20.52,52.38c11.88-12.15,25.92-18.63,39.15-18.63c22.68,0,35.64,17.82,35.64,45.9
			c0,46.44-35.91,87.75-73.17,87.75c-31.32,0-44.55-23.22-44.28-53.46C138.21,1577.59,156.85,1528.45,170.62,1497.13z
			 M170.08,1588.66c-1.62,7.83-2.7,15.39-2.7,22.41c0,18.63,5.94,29.16,18.09,29.16c22.68,0,40.5-31.59,40.5-57.51
			c0-15.93-7.83-19.98-14.04-19.98c-6.48,0-14.85,4.59-27.81,21.33C179.53,1589.74,174.13,1590.55,170.08,1588.66z"/>
		<path class="st10" d="M324.24,1647.26c-0.27-38.07,2.43-85.86,5.94-131.22c0.81-12.96,6.21-18.9,15.93-18.9
			c8.91,0,15.12,5.67,14.31,17.55c-2.16,28.35-5.94,76.14-7.83,117.99c19.17-5.13,52.65-11.88,66.15-12.69
			c10.26-0.54,15.12,3.51,15.12,10.53c0,5.4-3.78,9.45-11.07,11.34c-20.79,5.4-54,14.85-73.71,21.6
			C332.07,1669.4,324.24,1661.3,324.24,1647.26z"/>
		<path class="st10" d="M436.02,1490.92c0-8.91,6.75-16.74,15.66-16.74c6.48,0,10.53,2.43,12.69,5.67
			c5.94,1.35,9.18,5.94,9.18,11.88c0,10.8-7.29,18.36-19.71,18.36C440.88,1510.09,436.02,1500.64,436.02,1490.92z M437.64,1651.58
			c-1.08-31.59-1.08-63.72-0.54-93.96c0.27-10.8,5.67-17.28,14.85-17.28c10.8,0,14.85,6.48,14.58,18.09
			c-0.54,16.47-0.81,49.68-2.97,93.42c-0.54,10.53-5.67,15.66-12.96,15.66C442.5,1667.51,437.91,1662.65,437.64,1651.58z"/>
		<path class="st10" d="M487.32,1596.49c0-54.27,33.75-108.54,76.68-108.54c21.33,0,36.72,15.66,36.72,33.48
			c0,11.61-7.02,17.01-16.2,17.01c-15.12,0-10.8-22.41-26.73-22.41c-19.71,0-40.77,38.88-40.77,78.57
			c0,32.67,10.26,49.95,26.73,49.95c24.57,0,42.66-32.67,42.66-49.95c0-4.05-1.08-5.67-4.59-5.67c-4.86,0-25.92,3.78-34.29,4.32
			c-10.53,1.08-15.12-4.86-15.12-12.42c0-7.29,4.59-10.26,11.34-11.88c14.85-3.51,39.69-6.21,52.92-6.21
			c16.2,0,18.63,8.91,18.63,21.33c0,37.26-29.7,88.02-75.6,88.02C505.41,1672.1,487.32,1639.16,487.32,1596.49z"/>
		<path class="st10" d="M615.56,1655.09c4.59-14.04,11.61-33.21,19.17-53.19l-10.26,0.54c-10.8,0.54-16.74-5.94-16.74-13.23
			c0-6.21,2.97-11.34,12.15-12.69c6.21-0.81,14.85-1.62,25.38-2.43c11.61-29.97,22.68-56.7,27.27-66.42
			c5.4-11.07,10.26-15.66,21.06-15.66c9.72,0,15.39,5.13,18.63,17.55c3.78,14.04,9.18,36.72,14.58,60.48l13.23-0.27
			c7.29,0,12.42,3.78,12.42,10.26c0,5.94-3.51,10.53-12.96,11.88l-7.56,1.08l11.61,51.84c2.43,11.34-0.81,20.25-13.23,20.25
			c-7.02,0-11.07-4.86-12.96-12.69c-3.51-14.31-8.1-34.83-12.69-56.43c-13.5,1.35-27.54,2.7-39.69,3.51
			c-8.91,25.38-16.47,47.25-21.6,60.75c-3.78,10.26-8.91,14.04-15.66,14.04C617.99,1674.26,612.32,1665.08,615.56,1655.09z
			 M699.54,1571.11l-9.18-43.2l-15.66,44.55L699.54,1571.11z"/>
		<path class="st10" d="M788.1,1655.36c-0.81-18.63,0.27-85.59,1.08-120.15l-34.29,5.13c-12.96,1.62-19.71-4.32-19.71-14.04
			c0-7.29,4.86-11.88,12.42-13.23c9.18-1.62,25.38-4.05,44.01-6.21c2.7-5.67,8.37-8.64,14.58-8.64c5.4,0.27,9.45,1.62,12.15,5.94
			c14.04-1.35,28.08-2.43,40.77-3.24c9.72-0.54,14.85,3.24,14.85,11.07c0,6.75-4.59,10.8-13.77,12.15l-39.69,6.21
			c-1.08,31.05-3.51,88.02-6.21,125.28c-1.08,10.8-6.48,14.31-13.23,14.31C792.42,1669.94,788.37,1665.08,788.1,1655.36z"/>
		<path class="st10" d="M868.55,1585.69c0-19.71,2.7-40.23,5.67-54.54c2.43-13.5,7.83-19.17,17.28-19.17
			c11.34,0,15.39,9.18,14.04,18.63c-1.62,12.42-7.02,36.45-7.02,60.48c0,30.24,7.29,43.2,19.17,43.2
			c16.74,0,32.13-35.64,32.13-87.21c0-11.88-0.54-20.79-1.62-34.56c-1.35-13.77,5.13-19.17,14.58-19.17
			c9.18,0,13.5,6.48,14.85,15.39c1.89,11.61,2.43,21.87,2.43,33.75c0,56.7-19.17,121.77-63.18,121.77
			C880.7,1664.27,868.55,1623.23,868.55,1585.69z"/>
		<path class="st10" d="M1028.93,1614.32c-0.27,20.52-0.81,38.34-1.08,46.71c-0.54,9.99-4.59,15.93-13.23,15.93
			c-7.83,0-12.96-4.05-13.23-14.85c-0.27-13.5-0.54-37.8-0.54-63.18c-0.27-0.27-1.08-0.81-1.62-1.08
			c-6.75-3.78-8.91-6.75-8.91-12.15s2.16-9.18,10.8-11.34c0-30.51,0.27-61.02,0.54-78.57c0-11.88,6.75-17.55,15.39-17.55
			c8.91,0,14.04,5.94,14.04,15.93v4.05c37.26,2.97,82.89,19.17,82.89,44.01c0,22.41-28.08,36.99-71.01,49.41
			c18.09,9.45,40.23,21.33,63.99,34.83c7.83,4.59,11.07,8.37,11.07,14.31c0,9.72-10.26,17.28-22.41,10.53L1028.93,1614.32z
			 M1083.47,1544.11c0-8.91-21.33-16.2-52.92-19.17l-0.81,44.55C1059.44,1563.01,1083.47,1552.21,1083.47,1544.11z"/>
		<path class="st10" d="M1132.34,1629.17l-0.27-21.33c-9.99,2.16-17.01-4.05-17.01-12.42c0-5.94,2.7-9.72,8.64-11.88l8.64-2.43
			l0.54-51.3h-7.83c-8.91-0.27-14.04-5.13-14.04-12.42c0-7.56,4.59-11.34,12.15-12.42l9.99-0.81v-7.02
			c0-11.34,4.32-18.09,15.39-18.09c8.1,0,14.31,4.32,14.04,16.2c0,1.89,0,4.59-0.27,8.1c23.76-0.54,52.38-0.81,72.63-0.27
			c7.83,0,14.58,3.24,14.58,11.07c-0.27,7.83-6.21,11.07-14.85,11.34c-12.42,0.81-44.82,2.7-72.9,3.78l-0.81,44.82
			c29.16-6.75,66.42-14.85,74.52-15.39c6.48-0.27,11.07,3.51,11.34,9.45c0.27,6.48-4.05,10.8-11.34,12.96
			c-21.06,6.48-51.57,14.58-75.06,20.25v20.52c0,15.66,3.78,19.71,15.66,19.71c14.04,0,36.18-5.13,52.38-9.45
			c9.45-2.16,15.66,2.7,15.66,10.26c0,4.86-3.24,10.26-11.61,13.5c-20.25,7.83-48.87,12.96-66.42,12.96
			C1139.63,1668.86,1132.61,1655.09,1132.34,1629.17z"/>
		<path class="st10" d="M1246.28,1657.79c0-8.1,5.13-12.69,12.42-12.69c7.83,0,12.96,4.32,25.92,4.32
			c25.65,0,50.49-14.85,50.49-30.24c0-5.67-3.24-7.29-11.34-7.29c-8.64,0-25.92,1.62-45.9,1.62c-23.22,0-31.86-11.34-31.86-28.62
			c0-41.85,49.14-97.74,82.08-97.74c23.76,0,34.29,29.43,34.29,53.46c0,12.42-6.21,19.17-16.2,19.17
			c-11.88,0-15.39-8.37-15.39-18.36c0-15.12-1.62-25.65-9.18-25.65c-14.58,0-45.36,40.23-45.36,60.48c0,6.75,3.51,9.18,14.31,9.18
			c11.34,0,31.32-1.62,43.47-1.62c20.25,0,30.51,10.53,30.51,28.89c0,39.15-39.15,64.26-82.08,64.26
			C1259.51,1676.96,1246.28,1669.94,1246.28,1657.79z"/>
		<path class="st10" d="M1368.59,1696.94c3.24-21.6,6.48-48.06,7.83-67.23c0.54-11.61,6.75-17.28,15.12-17.28
			c10.8,0,14.85,7.56,14.85,16.74c0,17.82-9.72,59.4-15.93,72.9c-2.7,5.94-5.67,8.64-11.34,8.64
			C1371.83,1710.71,1367.24,1705.58,1368.59,1696.94z"/>
		<path class="st10" d="M131.19,1905.36c0-7.56,6.75-12.42,16.2-12.96c39.15-1.62,70.2-16.2,70.2-26.19
			c0-9.18-17.55-17.01-64.26-22.68c-9.99-1.35-14.31-5.4-14.31-12.42c0-5.13,2.7-8.64,7.83-12.96
			c17.28-14.85,48.87-39.15,67.77-54.27c-20.25,1.35-49.68,3.78-59.13,4.05c-11.07,0.27-16.47-4.86-16.47-12.96
			c0-6.75,3.78-11.61,14.04-12.69c11.34-1.08,54.81-3.51,81-2.7c11.07,0.27,16.2,5.13,16.47,13.23c0.27,7.56-4.59,13.5-13.23,21.33
			c-12.42,11.61-37.8,32.67-56.7,48.33c39.69,5.94,68.04,19.71,68.04,41.31c0,35.91-65.88,56.16-99.63,56.16
			C137.67,1919.94,130.92,1914,131.19,1905.36z"/>
		<path class="st10" d="M291.84,1895.37c6.48-18.9,14.31-39.42,23.22-62.64c-21.06,1.89-40.5,3.24-52.38,4.05
			c-18.09,1.08-20.79-24.57-2.97-26.73c12.42-1.62,40.23-2.97,65.61-3.78l15.66-40.77c-22.41,4.32-57.78,9.99-78.57,13.23
			c-19.17,2.7-24.57-24.3-4.32-27.81c28.08-5.13,59.4-9.18,92.34-12.96c18.63-2.16,26.46,8.1,20.52,25.11l-14.85,42.39h10.8
			c16.74,0,17.01,20.79,1.89,22.41l-21.6,1.89l-27,73.17c-3.51,9.45-7.29,14.31-15.12,14.31
			C292.65,1917.24,287.25,1908.33,291.84,1895.37z"/>
		<path class="st10" d="M447.09,1904.55v-48.6c-7.56-0.81-12.15-6.21-12.15-12.42c0-6.48,3.78-11.34,12.15-12.42h0.27l0.81-60.21
			l-14.31-0.27c-9.72-0.27-15.12-4.32-15.12-12.96s6.48-12.96,16.47-12.96l14.31,0.27c1.89-7.56,7.02-11.34,13.77-11.34
			c8.64,0,13.77,4.32,14.85,13.5c42.66,5.13,82.89,19.17,82.89,45.63c0,26.73-39.15,49.14-85.59,59.4
			c-0.81,22.95-1.35,42.39-1.89,51.57c-0.54,10.26-5.4,15.93-13.5,15.93C451.68,1919.67,447.36,1914.81,447.09,1904.55z
			 M532.14,1794.92c0-9.99-19.71-18.09-54.27-21.87c-0.27,14.85-0.81,33.75-1.62,52.65
			C512.16,1817.06,532.14,1803.56,532.14,1794.92z"/>
		<path class="st10" d="M562.1,1835.69c0-19.71,2.7-40.23,5.67-54.54c2.43-13.5,7.83-19.17,17.28-19.17
			c11.34,0,15.39,9.18,14.04,18.63c-1.62,12.42-7.02,36.45-7.02,60.48c0,30.24,7.29,43.2,19.17,43.2
			c16.74,0,32.13-35.64,32.13-87.21c0-11.88-0.54-20.79-1.62-34.56c-1.35-13.77,5.13-19.17,14.58-19.17
			c9.18,0,13.5,6.48,14.85,15.39c1.89,11.61,2.43,21.87,2.43,33.75c0,56.7-19.17,121.77-63.18,121.77
			C574.25,1914.27,562.1,1873.23,562.1,1835.69z"/>
		<path class="st10" d="M711.95,1917.24c-4.32-15.39-25.92-89.91-28.62-109.35c-1.08-9.99,4.59-16.2,13.5-16.2
			c5.4,0,10.26,2.7,12.42,13.5l8.64,42.93c-0.27-25.38-0.27-51.3,0.27-76.41c0.54-17.55,7.29-24.03,17.01-24.03
			c7.83,0,14.04,5.67,20.25,18.36c19.71,40.77,33.75,69.12,45.09,91.26c2.7-34.56,6.48-86.94,7.56-105.57
			c0.81-13.5,6.75-17.82,14.58-17.82c9.45,0,14.04,5.94,13.5,18.63c-1.89,30.78-7.29,87.75-11.61,119.07
			c-2.97,21.33-8.91,27.81-19.17,27.81c-8.91,0-14.31-4.86-20.79-16.74c-10.8-19.71-26.46-53.73-42.93-86.13l-2.16,115.83
			c-0.27,10.8-4.86,16.47-14.04,16.47C719.24,1928.85,714.38,1925.88,711.95,1917.24z"/>
		<path class="st10" d="M850.46,1853.78c0-60.21,32.4-112.59,68.85-112.59c20.25,0,34.56,17.55,34.56,34.83
			c0,11.07-7.29,15.39-14.58,15.39c-15.93,0-10.53-24.3-25.11-24.3c-14.04,0-34.56,36.45-34.56,86.13
			c0,24.03,5.94,37.26,20.52,37.26c19.17,0,32.67-24.57,40.23-49.68c2.97-8.64,7.02-11.07,12.69-11.07
			c6.75,0,11.61,5.94,11.07,12.96c-2.7,26.19-26.19,75.6-67.23,75.6C865.04,1918.32,850.46,1893.75,850.46,1853.78z"/>
		<path class="st10" d="M1005.71,1905.36c-0.81-18.63,0.27-85.59,1.08-120.15l-34.29,5.13c-12.96,1.62-19.71-4.32-19.71-14.04
			c0-7.29,4.86-11.88,12.42-13.23c9.18-1.62,25.38-4.05,44.01-6.21c2.7-5.67,8.37-8.64,14.58-8.64c5.4,0.27,9.45,1.62,12.15,5.94
			c14.04-1.35,28.08-2.43,40.77-3.24c9.72-0.54,14.85,3.24,14.85,11.07c0,6.75-4.59,10.8-13.77,12.15l-39.69,6.21
			c-1.08,31.05-3.51,88.02-6.21,125.28c-1.08,10.8-6.48,14.31-13.23,14.31C1010.03,1919.94,1005.98,1915.08,1005.71,1905.36z"/>
		<path class="st10" d="M1086.17,1835.69c0-19.71,2.7-40.23,5.67-54.54c2.43-13.5,7.83-19.17,17.28-19.17
			c11.34,0,15.39,9.18,14.04,18.63c-1.62,12.42-7.02,36.45-7.02,60.48c0,30.24,7.29,43.2,19.17,43.2
			c16.74,0,32.13-35.64,32.13-87.21c0-11.88-0.54-20.79-1.62-34.56c-1.35-13.77,5.13-19.17,14.58-19.17
			c9.18,0,13.5,6.48,14.85,15.39c1.89,11.61,2.43,21.87,2.43,33.75c0,56.7-19.17,121.77-63.18,121.77
			C1098.32,1914.27,1086.17,1873.23,1086.17,1835.69z"/>
		<path class="st10" d="M1201.73,1905.09c4.59-14.04,11.61-33.21,19.17-53.19l-10.26,0.54c-10.8,0.54-16.74-5.94-16.74-13.23
			c0-6.21,2.97-11.34,12.15-12.69c6.21-0.81,14.85-1.62,25.38-2.43c11.61-29.97,22.68-56.7,27.27-66.42
			c5.4-11.07,10.26-15.66,21.06-15.66c9.72,0,15.39,5.13,18.63,17.55c3.78,14.04,9.18,36.72,14.58,60.48l13.23-0.27
			c7.29,0,12.42,3.78,12.42,10.26c0,5.94-3.51,10.53-12.96,11.88l-7.56,1.08l11.61,51.84c2.43,11.34-0.81,20.25-13.23,20.25
			c-7.02,0-11.07-4.86-12.96-12.69c-3.51-14.31-8.1-34.83-12.69-56.43c-13.5,1.35-27.54,2.7-39.69,3.51
			c-8.91,25.38-16.47,47.25-21.6,60.75c-3.78,10.26-8.91,14.04-15.66,14.04C1204.16,1924.26,1198.49,1915.08,1201.73,1905.09z
			 M1285.7,1821.11l-9.18-43.2l-15.66,44.55L1285.7,1821.11z"/>
		<path class="st10" d="M1374.26,1905.36c-0.81-18.63,0.27-85.59,1.08-120.15l-34.29,5.13c-12.96,1.62-19.71-4.32-19.71-14.04
			c0-7.29,4.86-11.88,12.42-13.23c9.18-1.62,25.38-4.05,44.01-6.21c2.7-5.67,8.37-8.64,14.58-8.64c5.4,0.27,9.45,1.62,12.15,5.94
			c14.04-1.35,28.08-2.43,40.77-3.24c9.72-0.54,14.85,3.24,14.85,11.07c0,6.75-4.59,10.8-13.77,12.15l-39.69,6.21
			c-1.08,31.05-3.51,88.02-6.21,125.28c-1.08,10.8-6.48,14.31-13.23,14.31C1378.58,1919.94,1374.53,1915.08,1374.26,1905.36z"/>
		<path class="st10" d="M1461.47,1740.92c0-8.91,6.75-16.74,15.66-16.74c6.48,0,10.53,2.43,12.69,5.67
			c5.94,1.35,9.18,5.94,9.18,11.88c0,10.8-7.29,18.36-19.71,18.36C1466.33,1760.09,1461.47,1750.64,1461.47,1740.92z
			 M1463.09,1901.58c-1.08-31.59-1.08-63.72-0.54-93.96c0.27-10.8,5.67-17.28,14.85-17.28c10.8,0,14.85,6.48,14.58,18.09
			c-0.54,16.47-0.81,49.68-2.97,93.42c-0.54,10.53-5.67,15.66-12.96,15.66C1467.95,1917.51,1463.36,1912.65,1463.09,1901.58z"/>
		<path class="st10" d="M1513.84,1848.92c0-40.23,13.77-68.58,23.76-85.32c7.56-12.42,13.5-17.28,22.95-17.28
			c8.1,0,13.77,5.13,13.77,12.69h2.7c35.37,0,49.14,29.7,49.14,59.4c0,47.52-26.19,94.77-65.88,94.77
			C1525.18,1913.19,1513.84,1881.06,1513.84,1848.92z M1563.25,1886.19c21.87,0,34.56-37.8,34.83-66.42
			c0.27-17.55-5.4-36.72-27.81-36.72c-3.24,0-6.75,0.27-11.34,1.62c-8.1,13.77-15.66,36.99-15.66,64.53
			C1543.27,1871.34,1549.75,1886.19,1563.25,1886.19z"/>
		<path class="st10" d="M1665.58,1917.24c-4.32-15.39-25.92-89.91-28.62-109.35c-1.08-9.99,4.59-16.2,13.5-16.2
			c5.4,0,10.26,2.7,12.42,13.5l8.64,42.93c-0.27-25.38-0.27-51.3,0.27-76.41c0.54-17.55,7.29-24.03,17.01-24.03
			c7.83,0,14.04,5.67,20.25,18.36c19.71,40.77,33.75,69.12,45.09,91.26c2.7-34.56,6.48-86.94,7.56-105.57
			c0.81-13.5,6.75-17.82,14.58-17.82c9.45,0,14.04,5.94,13.5,18.63c-1.89,30.78-7.29,87.75-11.61,119.07
			c-2.97,21.33-8.91,27.81-19.17,27.81c-8.91,0-14.31-4.86-20.79-16.74c-10.8-19.71-26.46-53.73-42.93-86.13l-2.16,115.83
			c-0.27,10.8-4.86,16.47-14.04,16.47C1672.87,1928.85,1668.01,1925.88,1665.58,1917.24z"/>
		<path class="st10" d="M135.79,2157.79c0-8.1,5.13-12.69,12.42-12.69c7.83,0,12.96,4.32,25.92,4.32
			c25.65,0,50.49-14.85,50.49-30.24c0-5.67-3.24-7.29-11.34-7.29c-8.64,0-25.92,1.62-45.9,1.62c-23.22,0-31.86-11.34-31.86-28.62
			c0-41.85,49.14-97.74,82.08-97.74c23.76,0,34.29,29.43,34.29,53.46c0,12.42-6.21,19.17-16.2,19.17
			c-11.88,0-15.39-8.37-15.39-18.36c0-15.12-1.62-25.65-9.18-25.65c-14.58,0-45.36,40.23-45.36,60.48c0,6.75,3.51,9.18,14.31,9.18
			c11.34,0,31.32-1.62,43.47-1.62c20.25,0,30.51,10.53,30.51,28.89c0,39.15-39.15,64.26-82.08,64.26
			C149.02,2176.96,135.79,2169.94,135.79,2157.79z"/>
		<path class="st10" d="M270.51,1990.92c0-8.91,6.75-16.74,15.66-16.74c6.48,0,10.53,2.43,12.69,5.67
			c5.94,1.35,9.18,5.94,9.18,11.88c0,10.8-7.29,18.36-19.71,18.36C275.37,2010.09,270.51,2000.64,270.51,1990.92z M272.13,2151.58
			c-1.08-31.59-1.08-63.72-0.54-93.96c0.27-10.8,5.67-17.28,14.85-17.28c10.8,0,14.85,6.48,14.58,18.09
			c-0.54,16.47-0.81,49.68-2.97,93.42c-0.54,10.53-5.67,15.66-12.96,15.66C276.99,2167.51,272.4,2162.65,272.13,2151.58z"/>
		<path class="st10" d="M321.81,2096.49c0-54.27,33.75-108.54,76.68-108.54c21.33,0,36.72,15.66,36.72,33.48
			c0,11.61-7.02,17.01-16.2,17.01c-15.12,0-10.8-22.41-26.73-22.41c-19.71,0-40.77,38.88-40.77,78.57
			c0,32.67,10.26,49.95,26.73,49.95c24.57,0,42.66-32.67,42.66-49.95c0-4.05-1.08-5.67-4.59-5.67c-4.86,0-25.92,3.78-34.29,4.32
			c-10.53,1.08-15.12-4.86-15.12-12.42c0-7.29,4.59-10.26,11.34-11.88c14.85-3.51,39.69-6.21,52.92-6.21
			c16.2,0,18.63,8.91,18.63,21.33c0,37.26-29.7,88.02-75.6,88.02C339.9,2172.1,321.81,2139.16,321.81,2096.49z"/>
		<path class="st10" d="M484.35,2167.24c-4.32-15.39-25.92-89.91-28.62-109.35c-1.08-9.99,4.59-16.2,13.5-16.2
			c5.4,0,10.26,2.7,12.42,13.5l8.64,42.93c-0.27-25.38-0.27-51.3,0.27-76.41c0.54-17.55,7.29-24.03,17.01-24.03
			c7.83,0,14.04,5.67,20.25,18.36c19.71,40.77,33.75,69.12,45.09,91.26c2.7-34.56,6.48-86.94,7.56-105.57
			c0.81-13.5,6.75-17.82,14.58-17.82c9.45,0,14.04,5.94,13.5,18.63c-1.89,30.78-7.29,87.75-11.61,119.07
			c-2.97,21.33-8.91,27.81-19.17,27.81c-8.91,0-14.31-4.86-20.79-16.74c-10.8-19.71-26.46-53.73-42.93-86.13l-2.16,115.83
			c-0.27,10.8-4.86,16.47-14.04,16.47C491.64,2178.85,486.78,2175.88,484.35,2167.24z"/>
		<path class="st10" d="M617.46,2157.79c0-8.1,5.13-12.69,12.42-12.69c7.83,0,12.96,4.32,25.92,4.32
			c25.65,0,50.49-14.85,50.49-30.24c0-5.67-3.24-7.29-11.34-7.29c-8.64,0-25.92,1.62-45.9,1.62c-23.22,0-31.86-11.34-31.86-28.62
			c0-41.85,49.14-97.74,82.08-97.74c23.76,0,34.29,29.43,34.29,53.46c0,12.42-6.21,19.17-16.2,19.17
			c-11.88,0-15.39-8.37-15.39-18.36c0-15.12-1.62-25.65-9.18-25.65c-14.58,0-45.36,40.23-45.36,60.48c0,6.75,3.51,9.18,14.31,9.18
			c11.34,0,31.32-1.62,43.47-1.62c20.25,0,30.51,10.53,30.51,28.89c0,39.15-39.15,64.26-82.08,64.26
			C630.69,2176.96,617.46,2169.94,617.46,2157.79z"/>
		<path class="st10" d="M872.88,2157.25c-14.31,8.91-29.16,14.58-43.47,14.58c-26.19,0-36.45-14.58-36.45-30.78
			c0-15.39,15.66-33.75,33.75-52.38c-8.37-16.74-14.04-34.02-14.04-48.87c0-34.83,22.41-59.13,55.08-59.13
			c26.19,0,40.23,15.39,40.23,35.91c0,24.03-24.84,51.57-47.52,75.33c5.67,9.45,12.15,18.63,18.9,27.81
			c18.9-17.28,37.53-40.5,49.41-57.78c11.34-16.74,32.4-4.32,22.68,12.15c-8.37,14.04-29.97,43.47-56.16,66.42
			c13.77,17.01,27,31.59,34.83,40.23c13.23,15.39-7.29,29.16-18.9,18.09C902.31,2190.19,887.73,2175.07,872.88,2157.25z
			 M835.62,2144.29c6.48,0,13.77-2.7,21.33-7.29c-5.67-7.56-11.34-15.93-16.47-24.03c-8.91,9.72-14.85,17.82-14.85,23.22
			C825.63,2140.51,827.79,2144.29,835.62,2144.29z M847.77,2067.06c17.01-17.28,31.05-33.21,31.05-45.9
			c0-8.91-5.4-14.04-15.12-14.04c-12.69,0-22.95,10.8-22.95,30.24C840.75,2046.27,843.45,2056.8,847.77,2067.06z"/>
		<path class="st10" d="M1007.34,2098.92c0-40.23,13.77-68.58,23.76-85.32c7.56-12.42,13.5-17.28,22.95-17.28
			c8.1,0,13.77,5.13,13.77,12.69h2.7c35.37,0,49.14,29.7,49.14,59.4c0,47.52-26.19,94.77-65.88,94.77
			C1018.68,2163.19,1007.34,2131.06,1007.34,2098.92z M1056.75,2136.19c21.87,0,34.56-37.8,34.83-66.42
			c0.27-17.55-5.4-36.72-27.81-36.72c-3.24,0-6.75,0.27-11.34,1.62c-8.1,13.77-15.66,36.99-15.66,64.53
			C1036.77,2121.33,1043.25,2136.19,1056.75,2136.19z"/>
		<path class="st10" d="M1159.08,2167.24c-4.32-15.39-25.92-89.91-28.62-109.35c-1.08-9.99,4.59-16.2,13.5-16.2
			c5.4,0,10.26,2.7,12.42,13.5l8.64,42.93c-0.27-25.38-0.27-51.3,0.27-76.41c0.54-17.55,7.29-24.03,17.01-24.03
			c7.83,0,14.04,5.67,20.25,18.36c19.71,40.77,33.75,69.12,45.09,91.26c2.7-34.56,6.48-86.94,7.56-105.57
			c0.81-13.5,6.75-17.82,14.58-17.82c9.45,0,14.04,5.94,13.5,18.63c-1.89,30.78-7.29,87.75-11.61,119.07
			c-2.97,21.33-8.91,27.81-19.17,27.81c-8.91,0-14.31-4.86-20.79-16.74c-10.8-19.71-26.46-53.73-42.93-86.13l-2.16,115.83
			c-0.27,10.8-4.86,16.47-14.04,16.47C1166.37,2178.85,1161.51,2175.88,1159.08,2167.24z"/>
		<path class="st10" d="M1302.99,2147.26c-0.27-38.07,2.43-85.86,5.94-131.22c0.81-12.96,6.21-18.9,15.93-18.9
			c8.91,0,15.12,5.67,14.31,17.55c-2.16,28.35-5.94,76.14-7.83,117.99c19.17-5.13,52.65-11.88,66.15-12.69
			c10.26-0.54,15.12,3.51,15.12,10.53c0,5.4-3.78,9.45-11.07,11.34c-20.79,5.4-54,14.85-73.71,21.6
			C1310.82,2169.4,1302.99,2161.3,1302.99,2147.26z"/>
		<path class="st10" d="M1443.12,2087.58c-17.01-24.57-35.1-52.11-48.06-75.6c-10.8-19.98,14.04-35.64,26.46-14.58l37.53,62.91
			c14.04-24.03,27.54-46.44,35.37-59.4c11.34-18.36,38.07-4.32,24.3,15.66c-8.37,12.42-25.65,41.04-43.2,71.55l2.43,4.32
			c7.83,14.58-4.86,26.19-15.93,19.44c-13.23,23.76-25.38,46.44-33.21,63.18c-8.37,17.82-34.29,10.26-25.92-11.34
			C1408.02,2149.96,1424.76,2119.44,1443.12,2087.58z"/>
		<path class="st10" d="M187.63,2397.26c2.7-31.86,7.56-87.48,8.1-113.13c0-5.94-2.7-6.21-7.02-1.89
			c-10.8,11.61-23.76,26.46-35.64,42.12c-4.32,5.4-8.37,8.1-13.77,8.1c-11.61,0-17.82-11.88-9.72-23.76
			c11.61-16.74,29.97-36.99,47.79-52.38c14.58-12.69,20.79-16.2,29.16-16.2c11.88,0,17.55,8.64,17.55,25.11
			c0.27,35.91-4.59,109.08-7.02,131.76c-1.35,12.96-7.02,17.55-14.85,17.55C193.03,2414.54,186.55,2409.68,187.63,2397.26z"/>
		<path class="st10" d="M297.24,2353.78c0-60.21,32.4-112.59,68.85-112.59c20.25,0,34.56,17.55,34.56,34.83
			c0,11.07-7.29,15.39-14.58,15.39c-15.93,0-10.53-24.3-25.11-24.3c-14.04,0-34.56,36.45-34.56,86.13
			c0,24.03,5.94,37.26,20.52,37.26c19.17,0,32.67-24.57,40.23-49.68c2.97-8.64,7.02-11.07,12.69-11.07
			c6.75,0,11.61,5.94,11.07,12.96c-2.7,26.19-26.19,75.6-67.23,75.6C311.82,2418.32,297.24,2393.75,297.24,2353.78z"/>
		<path class="st10" d="M406.86,2405.09c4.59-14.04,11.61-33.21,19.17-53.19l-10.26,0.54c-10.8,0.54-16.74-5.94-16.74-13.23
			c0-6.21,2.97-11.34,12.15-12.69c6.21-0.81,14.85-1.62,25.38-2.43c11.61-29.97,22.68-56.7,27.27-66.42
			c5.4-11.07,10.26-15.66,21.06-15.66c9.72,0,15.39,5.13,18.63,17.55c3.78,14.04,9.18,36.72,14.58,60.48l13.23-0.27
			c7.29,0,12.42,3.78,12.42,10.26c0,5.94-3.51,10.53-12.96,11.88l-7.56,1.08l11.61,51.84c2.43,11.34-0.81,20.25-13.23,20.25
			c-7.02,0-11.07-4.86-12.96-12.69c-3.51-14.31-8.1-34.83-12.69-56.43c-13.5,1.35-27.54,2.7-39.69,3.51
			c-8.91,25.38-16.47,47.25-21.6,60.75c-3.78,10.26-8.91,14.04-15.66,14.04C409.29,2424.26,403.62,2415.08,406.86,2405.09z
			 M490.83,2321.11l-9.18-43.2l-15.66,44.55L490.83,2321.11z"/>
		<path class="st10" d="M587.49,2369.44l-1.08,31.32c-0.54,9.99-4.59,15.66-13.23,15.66c-7.83,0-13.23-4.05-13.23-14.85
			c-0.27-12.15-0.27-29.7-0.27-48.87l-7.56-4.59c-6.48-3.78-8.64-6.48-8.64-11.88c0-6.48,3.51-9.99,16.2-11.61
			c0-28.35,0.27-57.24,0.54-74.52c0.27-12.15,6.48-17.55,15.39-17.55c7.83,0,12.69,4.59,13.77,12.42
			c38.07,3.24,83.7,19.71,83.7,44.28c0,21.6-31.86,39.96-78.84,53.46c21.06,12.69,50.22,30.78,76.41,47.79
			c7.56,4.86,11.07,9.18,11.07,14.58c0,9.45-10.53,17.01-22.14,9.72C632.85,2397.8,608.55,2382.41,587.49,2369.44z M642.84,2291.14
			c0-8.64-21.87-16.2-53.46-19.71l-0.81,47.52C617.46,2311.66,642.84,2299.78,642.84,2291.14z"/>
		<path class="st10" d="M716.28,2364.31c-0.27,20.52-0.81,38.34-1.08,46.71c-0.54,9.99-4.59,15.93-13.23,15.93
			c-7.83,0-12.96-4.05-13.23-14.85c-0.27-13.5-0.54-37.8-0.54-63.18c-0.27-0.27-1.08-0.81-1.62-1.08
			c-6.75-3.78-8.91-6.75-8.91-12.15c0-5.4,2.16-9.18,10.8-11.34c0-30.51,0.27-61.02,0.54-78.57c0-11.88,6.75-17.55,15.39-17.55
			c8.91,0,14.04,5.94,14.04,15.93v4.05c37.26,2.97,82.89,19.17,82.89,44.01c0,22.41-28.08,36.99-71.01,49.41
			c18.09,9.45,40.23,21.33,63.99,34.83c7.83,4.59,11.07,8.37,11.07,14.31c0,9.72-10.26,17.28-22.41,10.53L716.28,2364.31z
			 M770.82,2294.11c0-8.91-21.33-16.2-52.92-19.17l-0.81,44.55C746.79,2313.01,770.82,2302.21,770.82,2294.11z"/>
		<path class="st10" d="M809.16,2348.92c0-40.23,13.77-68.58,23.76-85.32c7.56-12.42,13.5-17.28,22.95-17.28
			c8.1,0,13.77,5.13,13.77,12.69h2.7c35.37,0,49.14,29.7,49.14,59.4c0,47.52-26.19,94.77-65.88,94.77
			C820.5,2413.19,809.16,2381.06,809.16,2348.92z M858.57,2386.19c21.87,0,34.56-37.8,34.83-66.42c0.27-17.55-5.4-36.72-27.81-36.72
			c-3.24,0-6.75,0.27-11.34,1.62c-8.1,13.77-15.66,36.99-15.66,64.53C838.59,2371.33,845.07,2386.19,858.57,2386.19z"/>
		<path class="st10" d="M972.24,2405.36c-0.81-18.63,0.27-85.59,1.08-120.15l-34.29,5.13c-12.96,1.62-19.71-4.32-19.71-14.04
			c0-7.29,4.86-11.88,12.42-13.23c9.18-1.62,25.38-4.05,44.01-6.21c2.7-5.67,8.37-8.64,14.58-8.64c5.4,0.27,9.45,1.62,12.15,5.94
			c14.04-1.35,28.08-2.43,40.77-3.24c9.72-0.54,14.85,3.24,14.85,11.07c0,6.75-4.59,10.8-13.77,12.15l-39.69,6.21
			c-1.08,31.05-3.51,88.02-6.21,125.28c-1.08,10.8-6.48,14.31-13.23,14.31C976.56,2419.94,972.51,2415.08,972.24,2405.36z"/>
		<path class="st10" d="M1033.53,2387.81c0-8.1,6.21-14.58,13.23-14.58h1.08c1.89-1.62,4.86-2.97,8.1-2.97
			c6.75,0,15.66,5.4,15.66,16.2c0,9.45-5.94,19.71-17.82,19.71C1043.25,2406.17,1033.53,2399.15,1033.53,2387.81z"/>
	</g>
	<g>
		<path class="st10" d="M135.84,2669.93l-0.56-0.19c-4.29-1.68-4.1-9.32,1.12-10.25c2.61-20.87,12.67-35.03,18.82-39.69
			c3.35-2.42,6.52-2.05,8.2-0.37c7.83-4.1,21.24-8.94,36.9-8.94c32.61,0,44.91,17.52,48.26,33.17c3.54,0.75,5.22,5.59,1.12,8.94
			c1.12,41.55-33.91,63.73-65.03,64.66C152.43,2718.38,135.84,2697.88,135.84,2669.93z M175.35,2706.64
			c-3.91-7.08-8.2-18.82-8.94-32.8c-7.27-0.19-13.79-0.75-19.19-1.49C147.96,2692.1,157.27,2704.03,175.35,2706.64z M166.59,2662.85
			c0.93-12.86,4.29-25.53,11.74-38.01c-5.4,1.86-10.06,4.29-14.16,6.71c-2.24,1.3-4.29,1.86-6.15,1.49
			c-4.29,5.96-8.94,14.35-10.44,28.32C152.43,2662.1,158.58,2662.66,166.59,2662.85z M186.71,2706.45
			c8.57-9.13,15.09-21.62,17.52-35.22c-7.83,1.49-16.96,2.61-26.65,2.79C178.14,2686.33,181.87,2697.51,186.71,2706.45z
			 M205.16,2660.24c0-14.91-7.27-29.44-14.72-38.39c-7.08,13.6-11.55,23.85-12.67,41.18
			C188.2,2662.85,197.52,2661.73,205.16,2660.24z M238.52,2659.31c-6.34,3.35-13.79,6.52-22.73,9.13
			c-1.68,12.67-6.34,25.53-15.09,36.15C220.07,2698.81,237.03,2683.35,238.52,2659.31z M216.34,2657.45
			c8.57-2.61,15.28-5.78,21.62-9.13c-2.61-17.52-13.98-26.83-35.78-27.21C208.7,2629.68,215.97,2643.84,216.34,2657.45z"/>
		<path class="st10" d="M298.52,2679.81c-11.93,6.34-29.07,1.86-29.07-15.65c0-21.24,19.75-34.66,30.93-37.27
			c1.68-0.37,3.17-0.19,4.29,0.56c6.71-11.18,19.01-23.67,34.66-23.67c11.74,0,20.68,5.4,26.46,11.37
			c25.53,1.3,37.08,12.3,37.08,31.86c0,21.06-16.21,34.47-40.81,34.85c-5.96,8.01-18.45,13.6-33.17,13.6
			C315.66,2695.46,303.55,2688.75,298.52,2679.81z M288.64,2672.35c6.15,0,9.13-2.24,12.86-2.24c1.86,0,3.73,0.56,6.71,4.66
			c5.22,6.71,11.55,10.06,21.8,10.06c10.44,0,18.08-3.17,24.04-9.32c2.42-2.42,4.66-3.54,8.2-3.54c17.52,0,29.07-9.13,29.07-24.04
			c0-15.65-9.32-23.67-28.14-23.67c-2.79,0-5.22-0.37-7.27-2.05c-4.66-4.1-10.06-7.45-17.52-7.45c-13.23,0-22.92,12.48-27.39,26.46
			c-2.61,8.2-14.16,6.34-10.99-3.73c-8.39,4.1-19.57,12.86-19.57,25.9C280.44,2668.07,282.87,2672.35,288.64,2672.35z
			 M311.93,2709.25c-1.86,4.66-5.78,12.48-9.32,19.19c-3.35,6.52-11.74,2.61-8.57-4.1c2.42-5.22,6.52-12.86,9.5-18.07
			C306.72,2700.86,313.61,2704.22,311.93,2709.25z M341.56,2707.2c0,6.89-0.93,20.31-1.3,23.67c-0.75,6.52-10.62,6.34-10.25-1.49
			c0.19-3.54,1.86-16.4,2.98-22.36C334.11,2700.68,341.56,2701.79,341.56,2707.2z M371,2702.35c0.93,4.84,1.86,14.53,2.05,18.82
			c0.19,5.96-8.57,7.08-9.32,0.56c-0.56-4.84-1.12-11.93-1.12-18.26C362.62,2697.32,369.89,2696.95,371,2702.35z"/>
		<path class="st10" d="M421.5,2674.78c0-26.09,10.62-41.18,27.02-41.18c2.61,0,5.22,0.56,7.64,1.49
			c-7.27-22.55-5.96-28.14-0.37-28.14c1.86,0,3.17,0.56,4.84,3.91c1.86,3.54,3.91,8.01,5.78,12.67
			c4.47-11.74,10.44-30.56,15.65-30.56c2.98,0,5.03,1.12,5.03,4.84c0,4.84-6.34,20.5-12.11,35.03c9.13-6.89,17.52-9.5,25.9-9.5
			c14.53,0,24.41,7.64,25.16,27.95c1.49,42.67-34.85,65.41-62.8,66.34C435.85,2718.57,421.5,2701.24,421.5,2674.78z M463.43,2706.64
			c22.55,0,51.06-20.31,51.06-51.99c0-16.03-7.83-20.87-16.21-20.87c-9.32,0-17.7,3.91-27.58,12.3c1.3,1.86,2.24,4.1,2.24,5.59
			c0,3.54-2.24,5.96-6.15,5.96c-6.9,0-8.76-13.42-19.38-13.42c-7.45,0-14.53,8.01-14.53,29.44
			C432.87,2696.02,443.3,2706.64,463.43,2706.64z"/>
		<path class="st10" d="M542.43,2728.07c5.4-20.5,17.33-60.93,28.51-90.19c2.79-7.08,12.11-4.29,9.69,2.8l-2.98,9.32
			c17.33,5.22,26.27,13.23,26.27,19.75c0,2.8-1.68,4.84-4.84,4.84c-2.8,0-4.29-1.86-6.34-5.22c-2.79-4.47-11.18-8.94-17.89-10.99
			l-3.54,11.55c6.71,1.86,12.3,5.22,15.47,8.39c3.91,3.73-0.37,10.62-6.52,6.15c-2.79-2.05-7.27-4.66-11.55-6.34
			c-4.85,15.65-9.13,30.19-13.98,45.09c25.16-20.31,64.1-49.75,64.1-60.56c0-10.25-19.38-23.67-33.54-29.07
			c-6.34-2.61-2.42-10.99,3.35-9.13c5.22,1.68,10.44,4.1,16.03,7.27c4.84-15.28,11.37-32.61,18.08-42.11
			c3.17-4.47,9.88-2.61,7.45,5.03l-6.89,23.11c10.99-9.88,24.78-23.85,29.07-24.6c3.35-0.75,5.78,2.61,2.98,6.89
			c-4.29,6.34-25.71,25.53-40.25,38.57c8.76,6.89,15.47,15.28,15.47,23.29c0,4.1-1.3,8.94-9.13,17.52
			c-21.06,24.04-61.49,53.85-69.13,58.14C547.65,2739.99,540.01,2737.2,542.43,2728.07z"/>
		<path class="st10" d="M658.52,2641.61c-0.37-13.23,3.73-21.06,11.55-21.43c14.53-0.56,33.73,21.8,41.55,33.54
			c10.25-16.58,27.58-36.52,39.32-36.52c5.78,0,10.62,3.35,10.99,13.79c0.93,25.9-37.08,87.39-62.24,88.14
			C685.54,2719.5,659.83,2680.37,658.52,2641.61z M702.13,2705.89c16.4-0.37,47.14-50.5,46.4-68.76c0-2.61-0.75-3.91-2.98-3.91
			c-8.57,0.19-23.85,22.55-31.12,36.9c-4.29,8.39-12.3,2.98-9.5-3.73c-0.75-0.75-1.68-2.05-2.61-3.73
			c-5.03-8.57-19.94-28.51-27.95-28.14c-2.61,0-3.91,2.61-3.73,6.89C671.57,2668.44,688.52,2706.27,702.13,2705.89z"/>
		<path class="st10" d="M777.22,2674.78c0-14.53,25.16-30.93,36.52-32.61c5.96-0.93,8.2,2.05,8.2,4.84c0,2.98-2.42,4.66-6.52,5.96
			c-10.81,2.98-26.46,12.3-26.46,19.57c0,3.35,5.22,5.96,20.12,5.96l9.69-0.19v-2.42c0-13.79,4.1-26.65,8.76-36.34
			c-1.49-2.05-1.49-5.22,0.75-9.32c4.29-7.45,17.52-19.57,39.5-19.57c16.58,0,27.58,7.83,33.73,18.26
			c1.86-1.49,5.22-2.05,10.06-2.05c21.06,0,40.44,6.15,40.44,15.84c0,10.06-18.63,21.43-45.47,30.37
			c-5.78,29.44-27.39,45.84-48.63,46.59c-20.87,0.56-33.91-11.55-37.83-30.75l-10.99,0.19
			C783.74,2689.12,777.22,2682.23,777.22,2674.78z M895.92,2665.64c0.19-2.42,0.37-5.4,0.37-8.39c0-24.41-12.11-35.22-28.32-35.22
			c-10.81,0-17.33,3.73-22.17,8.2l-0.56,1.49c-2.98,6.34-14.16,20.31-14.16,44.35v1.49
			C854.74,2675.71,877.29,2671.05,895.92,2665.64z M856.79,2708.32c15.84,0,30.93-10.81,36.9-31.31
			c-18.63,5.22-40.25,9.32-61.49,11.18C834.99,2701.61,843.37,2708.32,856.79,2708.32z M908.03,2652.6c0.19,3.35,0.19,6.15,0,9.32
			c19.01-6.52,31.31-13.6,31.31-17.52c0-4.29-17.7-7.27-31.86-6.34h-1.86C907.1,2642.73,907.85,2647.57,908.03,2652.6z"/>
		<path class="st10" d="M969.34,2615.33c-1.86-6.52,7.27-9.69,9.5-3.91c1.86,4.66,7.83,17.52,11.93,23.11
			c2.98,4.29-2.61,9.5-7.64,3.91C977.54,2632.1,970.83,2619.62,969.34,2615.33z M971.2,2701.98c0-7.08,4.47-14.72,15.65-20.12
			c-2.79-3.35-4.1-7.45-4.1-12.67c0-15.84,18.07-25.9,34.29-33.73c0.19-1.68,0.37-3.54,0.93-5.78c0.93-3.91,2.79-5.59,5.96-5.59
			c5.03,0,6.15,4.1,5.4,7.83c-7.45,35.78,46.03,21.99,46.03,58.32c0,17.52-21.43,31.49-61.86,31.49
			C982.94,2721.73,971.2,2715.21,971.2,2701.98z M994.68,2686.89c-9.69,4.47-11.37,9.32-11.37,13.04c0,7.45,7.27,11.18,30.19,11.18
			c30.56,0,50.87-5.96,50.87-21.24c0-21.8-40.44-19.38-46.77-43.79c-10.81,5.59-22.92,10.81-22.92,21.06
			c0,5.96,3.91,10.25,16.02,10.06c10.44,0.19,14.72-1.68,19.94-2.98c5.59-1.49,10.06,4.84,2.42,9.5c-6.34,4.1-18.45,5.03-26.46,5.03
			C1001.95,2688.75,998.03,2688.19,994.68,2686.89z M1002.13,2598.94c0-7.45,10.81-7.83,10.44-0.19
			c-0.19,5.03-0.19,12.11,0.37,18.63c0.56,7.45-7.45,8.01-8.76,1.49C1002.69,2611.42,1002.13,2605.46,1002.13,2598.94z
			 M1048.53,2639.56c5.78-4.66,9.13-8.2,9.13-13.42c0-4.47-4.47-10.25-3.91-15.65c0.37-5.78,9.32-7.08,10.25-0.75
			c0.56,4.84,2.79,11.18,2.79,16.77c0,9.88-8.01,16.03-12.48,18.82C1047.41,2649.25,1044.8,2642.54,1048.53,2639.56z"/>
		<path class="st10" d="M1113.38,2619.62c0.75-3.35,2.98-5.03,5.59-5.03c2.98,0,6.34,2.05,5.22,8.57
			c-3.35,21.8-3.54,55.53,2.61,55.53c7.08,0,27.02-31.86,32.98-76.96c0.75-5.03,3.35-6.71,6.52-6.71c3.91,0,6.15,2.98,5.59,7.64
			c-2.61,25.34-8.39,65.96,5.03,65.96c13.79,0,19.94-26.46,22.55-40.44c0.75-4.47,3.17-6.34,6.15-6.34c3.54,0,6.15,2.61,5.4,6.89
			c-3.17,19.19-7.27,38.94-10.44,64.1c-0.19,1.68-0.93,3.54-1.86,4.66c8.2,0,8.01,9.88,0.56,9.88c-41.55,0-71.74,8.57-90.56,15.65
			c-6.34,2.24-11.93-1.12-10.44-10.81C1105.18,2669.74,1110.95,2629.49,1113.38,2619.62z M1190.15,2697.7
			c-0.93-1.3-1.12-3.17-0.93-5.22c0.56-4.84,1.3-11.74,3.17-21.06c-5.22,6.15-12.48,9.32-17.52,9.32
			c-12.11,0-16.4-13.79-17.33-30.37c-8.2,23.29-21.62,41.55-30.37,41.55c-6.34,0-10.81-6.34-13.23-13.98l-3.91,32.98
			C1135.55,2702.91,1164.06,2698.81,1190.15,2697.7z"/>
		<path class="st10" d="M1227.97,2667.14c-5.03-5.22,1.3-11.74,6.71-7.64s13.23,8.94,18.08,12.3c4.84,3.54,0.93,10.62-5.03,7.64
			C1243.25,2677.57,1232.63,2671.98,1227.97,2667.14z M1250.89,2726.39c1.68-4.29,6.33-15.09,9.32-20.31
			c3.17-5.4,10.99-2.24,8.94,3.54c-1.49,3.91-8.57,18.07-10.81,21.24C1255.18,2735.34,1248.47,2732.54,1250.89,2726.39z
			 M1260.96,2671.79c0-12.3,4.29-23.11,10.25-23.11h0.75c3.54-7.08,13.04-15.09,26.09-15.09c16.58,0,23.85,12.3,23.85,27.58
			c0,19.94-14.91,39.88-35.22,39.88C1269.71,2701.05,1260.96,2688.94,1260.96,2671.79z M1263.38,2614.03
			c-3.54-6.15,5.03-10.81,8.57-5.59c2.24,2.98,8.94,13.6,10.43,16.58c2.79,5.59-3.54,9.69-7.64,4.84
			C1270.83,2625.21,1265.43,2617.76,1263.38,2614.03z M1287.23,2690.24c13.6,0,23.85-13.42,23.85-28.7c0-11.74-4.84-17.7-13.23-17.7
			c-12.3,0-16.02,15.28-21.43,15.47h-2.05c-0.93,3.17-1.86,7.27-1.86,12.86C1272.51,2681.11,1275.3,2690.24,1287.23,2690.24z
			 M1308.29,2626.33c0.56-4.66,3.17-23.11,5.22-30.19c2.05-6.89,11.74-4.66,10.25,2.05c-1.68,7.27-5.03,23.85-6.52,29.81
			C1315.74,2633.78,1307.54,2632.66,1308.29,2626.33z M1323.38,2691.36c-5.22-5.22,1.49-12.67,7.45-7.64
			c3.17,2.61,16.77,16.77,19.75,23.48c2.61,5.78-3.17,10.44-7.83,4.66C1338.1,2705.89,1329.16,2697.32,1323.38,2691.36z
			 M1331.39,2641.61c5.78-2.61,14.91-5.78,20.87-6.52c7.08-0.93,8.2,8.01,2.24,9.5c-3.73,0.93-16.77,3.91-20.87,5.22
			C1328.41,2651.48,1325.62,2644.22,1331.39,2641.61z"/>
		<path class="st10" d="M1382.64,2712.42c-0.19-21.24,2.98-75.84,4.84-86.65c1.49-8.76,12.67-6.89,12.3,0.19
			c0,1.12-0.19,2.61-0.37,4.29c9.69-2.98,41.18-8.39,59.81-8.39c2.8,0,5.4,0.19,7.27,0.37c5.59-10.06,10.81-19.75,14.53-27.58
			c3.54-7.08,13.98-4.1,9.88,4.47c-4.66,9.5-9.5,19.01-14.35,28.14c1.3,1.68,2.05,3.35,2.79,5.4c2.79,8.76,2.24,41.93,0.75,64.47
			c-0.37,8.01-1.49,14.35-14.72,15.84c-23.29,2.98-54.04,7.27-69.69,10.06C1386.55,2724.53,1382.64,2722.48,1382.64,2712.42z
			 M1418.41,2679.25c-2.42-6.15-5.03-14.72-6.34-23.11c-0.93-8.94,9.5-10.62,11.37-2.42c1.68,8.76,4.47,23.48,6.71,23.48
			c3.35,0,16.96-20.87,30-43.42c-2.42-0.37-5.22-0.19-8.01,0c-20.31,1.3-46.21,5.59-53.48,6.89c-1.49,18.82-3.91,47.33-4.66,70.44
			c29.63-4.66,57.02-8.2,74.91-10.25c1.12-20.87,1.68-44.91,0.75-56.83c0-1.12-0.19-2.42-0.37-3.17
			c-9.69,16.96-19.75,32.05-30,43.04c-2.98,3.17-6.52,6.15-10.99,6.15C1423.07,2690.06,1421.21,2686.33,1418.41,2679.25z"/>
		<path class="st10" d="M1517.92,2628.56c2.61-3.54,6.52-3.91,8.94-2.42c9.5-9.13,26.27-18.26,49.94-18.26
			c27.76,0,50.13,16.58,50.13,47.89c0,41.37-35.22,64.1-67.83,64.1c-31.68,0-51.24-19.01-51.24-53.11
			C1507.86,2653.53,1511.21,2637.13,1517.92,2628.56z M1559.84,2708.69c27.02,0,55.72-17.89,55.72-52.92
			c0-25.34-16.21-36.52-40.25-36.52c-23.67,0-38.95,11.93-47.52,24.6c-1.49,2.24-3.17,2.8-5.03,2.24
			c-2.05,6.34-3.17,13.23-3.17,20.5C1519.6,2693.97,1534.5,2708.69,1559.84,2708.69z M1539.35,2654.28c0-4.1,3.91-8.76,10.06-8.76
			c3.17,0,4.47,1.68,5.03,3.54c1.12,0.93,1.86,2.61,1.86,4.47c0,5.03-3.17,8.39-8.94,8.39S1539.35,2658.56,1539.35,2654.28z
			 M1540.09,2681.3c0-3.17,2.05-5.4,6.71-5.59c18.63-1.12,24.41-0.75,34.1-0.75c2.61,0,4.47,1.68,4.47,4.47
			c-0.19,2.98-2.24,3.91-5.4,4.29c-11.18,1.3-19.19,2.05-33.35,2.79C1542.7,2686.7,1540.09,2683.91,1540.09,2681.3z
			 M1572.52,2650.92c0-2.05,0.75-3.73,2.61-4.47c0.75-1.3,2.42-2.79,4.84-2.79c5.4,0,8.01,4.47,8.01,8.01
			c0,3.73-2.61,7.08-7.64,7.08S1572.52,2655.4,1572.52,2650.92z"/>
		<path class="st10" d="M1666.8,2623.72c12.67,0,26.09,7.45,34.85,19.38c2.42-25.53,14.16-37.45,27.58-37.45
			c13.23,0,18.82,8.39,18.82,18.08c0,10.06-6.33,19.01-16.77,26.46c19.94-1.49,39.5,5.96,39.5,22.36c0,9.5-7.27,15.84-18.45,15.84
			c-6.89,0-14.16-2.42-21.24-6.89c4.85,7.08,8.01,15.09,8.01,22.36c0,9.5-5.59,15.09-13.42,15.09c-13.42,0-21.06-12.86-22.17-34.85
			c-5.78,26.27-19.38,36.9-31.12,36.9c-13.6,0-19.19-9.5-19.19-18.63c0-17.14,16.77-31.49,33.54-38.95
			c-21.06,0.56-39.32-7.83-39.32-23.85C1647.42,2630.99,1652.64,2623.72,1666.8,2623.72z M1692.52,2655.58
			c0.75-1.49,1.86-2.8,2.98-3.73c-5.78-8.94-16.03-18.63-28.51-18.63c-5.96,0-8.2,2.79-8.2,6.71
			C1658.79,2650.36,1677.24,2655.77,1692.52,2655.58z M1672.95,2710.74c8.39,0,19.19-11.93,24.78-39.5c-1.3-0.75-2.05-1.3-2.98-2.42
			c-13.79,6.89-30.37,18.63-30.37,32.42C1664.38,2706.64,1666.62,2710.74,1672.95,2710.74z M1714.32,2651.11
			c13.23-6.52,22.73-17.33,22.73-26.27c0-4.85-2.42-9.13-8.57-9.13c-11.18,0-15.65,17.89-17.89,33.35
			C1712.08,2649.62,1713.2,2650.18,1714.32,2651.11z M1724.76,2709.06c2.05,0,4.29-1.12,4.29-5.96c0-10.06-8.39-21.62-17.89-30.75
			C1711.71,2691.55,1716.37,2709.06,1724.76,2709.06z M1751.77,2678.13c3.91,0,8.01-1.3,8.01-5.96c0-11.93-24.78-14.35-41.74-13.04
			v0.56c0,0.75,0,1.3-0.19,2.05C1725.69,2668.44,1740.04,2678.13,1751.77,2678.13z"/>
	</g>
	<g>
		<path class="st10" d="M162.84,2540.46c-4.08,4.2-8.88,10.32-10.92,13.68c-1.02,1.74-1.92,2.4-3.18,2.4c-1.26,0-1.98-0.6-2.94-2.04
			c-2.7-4.14-5.88-8.58-9.3-12.84c-2.16-2.7,1.38-5.52,3.66-2.88c1.98,2.28,4.38,5.76,6.3,8.82c-0.06-9.36,0-22.68,0.06-27.9
			c0-2.34,1.08-3.18,2.64-3.18c1.44,0,2.46,0.9,2.46,2.88c0.06,5.1-0.24,18.78-0.48,28.2c2.46-3.84,5.76-8.22,8.4-10.68
			C161.94,2534.7,165.6,2537.52,162.84,2540.46z"/>
		<path class="st10" d="M177.19,2523c0-1.38,0.9-2.16,2.58-2.46c2.52-0.42,6.06-0.66,9.72-0.78v-0.24c0-1.92,1.02-3.18,2.82-3.18
			c1.86,0,2.58,1.2,2.52,3.24v0.06c2.82-0.06,5.4,0,7.32,0.06c1.74,0.06,2.7,0.78,2.7,1.98c0,1.26-0.48,2.16-2.46,2.28l-7.68,0.36
			c-0.18,6.66-0.54,17.64-0.84,24.78c3.84-0.24,7.56-0.42,9.3-0.42c1.56,0,2.64,0.66,2.64,2.1c0,1.38-0.84,2.04-2.76,2.28
			c-6.24,0.72-15.9,1.74-21.18,2.52c-2.28,0.36-3.6-0.72-3.6-2.58c0-1.26,0.9-2.16,2.22-2.46c1.2-0.3,4.62-0.66,8.58-1.02
			l0.36-24.84c-2.82,0.18-5.82,0.48-8.82,0.78C178.51,2525.76,177.19,2524.68,177.19,2523z"/>
		<path class="st10" d="M206.82,2542.14c0-13.08,6.78-24.84,14.76-24.84c4.44,0,7.2,4.08,7.2,7.56c0,1.98-1.2,2.82-2.64,2.82
			c-3.3,0-1.92-5.64-5.52-5.64c-3.54,0-8.34,8.7-8.34,19.98c0,6.06,1.5,9.12,5.1,9.12c4.32,0,7.68-5.46,9.54-11.94
			c0.54-1.62,1.32-1.98,2.22-1.98c1.32,0,2.22,0.9,2.1,2.34c-0.48,5.64-5.7,16.68-14.46,16.68
			C209.94,2556.24,206.82,2550.84,206.82,2542.14z"/>
		<path class="st10" d="M232.74,2541.18c0-9.06,3.3-15.36,5.52-19.02c1.68-2.76,3-3.6,4.8-3.6c1.44,0,2.64,0.96,2.64,2.58v0.06
			c0.3-0.06,0.48-0.06,0.66-0.06c7.62,0,10.68,6.36,10.68,13.14c0,10.56-5.76,20.94-14.4,20.94
			C235.26,2555.22,232.74,2548.2,232.74,2541.18z M243.36,2550.36c5.28,0,8.4-9.18,8.46-15.96c0-3.78-1.26-8.94-6.9-8.94
			c-0.66,0-1.56,0.06-2.7,0.42c-2.1,3-4.08,8.82-4.08,15.24C238.14,2546.52,239.82,2550.36,243.36,2550.36z"/>
		<path class="st10" d="M266.4,2556.48c-0.9-3.54-5.52-20.16-6.3-24.66c-0.3-1.98,0.66-3.3,2.52-3.3c0.96,0,1.98,0.48,2.4,2.52
			l2.16,10.86c0-5.82,0-12.06,0.18-17.88c0.12-3.72,1.14-5.34,3.3-5.34c1.56,0,2.82,1.38,4.08,3.96c4.5,9.36,8.58,17.46,11.16,22.26
			c0.72-8.1,1.74-22.5,1.92-25.74c0.18-2.64,1.14-3.54,2.76-3.54c1.86,0,2.7,1.14,2.52,3.72c-0.42,6.42-1.68,19.68-2.76,27.54
			c-0.54,3.84-1.68,5.1-3.72,5.1c-1.74,0-2.82-1.02-4.2-3.48c-2.82-5.04-6.96-13.86-10.68-20.94l-0.3,27.9
			c-0.06,2.22-0.96,3.18-2.52,3.18C267.72,2558.64,266.82,2558.16,266.4,2556.48z"/>
		<path class="st10" d="M295.26,2554.62c0-1.62,0.96-2.46,2.46-2.46c1.68,0,2.82,1.08,5.76,1.08c5.94,0,11.82-3.54,11.82-7.8
			c0-1.62-0.96-1.98-3.18-1.98c-2.22,0-5.88,0.36-10.08,0.36c-4.62,0-6.66-2.04-6.66-5.94c0-9,10.92-21.48,17.7-21.48
			c5.22,0,7.26,6.66,7.26,11.7c0,2.52-1.2,3.72-3,3.72c-2.04,0-2.82-1.38-2.82-3.48c0-4.08-0.48-6.72-2.52-6.72
			c-3.42,0-10.98,9.6-10.98,14.64c0,1.74,0.9,2.34,3.72,2.34c2.34,0,6.54-0.36,9.54-0.36c4.38,0,6.48,2.34,6.48,6.24
			c0,8.04-8.34,13.8-17.88,13.8C298.14,2558.28,295.26,2556.96,295.26,2554.62z"/>
	</g>
</g>
</svg>
