<?xml version="1.0" encoding="utf-8"?>
<!-- Generator: Adobe Illustrator 27.8.0, SVG Export Plug-In . SVG Version: 6.00 Build 0)  -->
<svg version="1.1" xmlns="http://www.w3.org/2000/svg" xmlns:xlink="http://www.w3.org/1999/xlink" x="0px" y="0px"
	 viewBox="0 0 1920 949.21" style="enable-background:new 0 0 1920 949.21;" xml:space="preserve">
<style type="text/css">
	.st0{display:none;}
	.st1{display:inline;}
	.st2{fill:none;stroke:#FFFFFF;stroke-width:1.1487;stroke-miterlimit:10;}
	.st3{fill:none;stroke:#000000;stroke-width:0.13;stroke-miterlimit:10;}
	.st4{fill:none;stroke:#FFFFFF;stroke-width:1.5;stroke-miterlimit:10;}
	.st5{opacity:0.8;fill:#FFFFFF;}
	.st6{fill:#FFFFFF;stroke:#FFFFFF;stroke-width:0.5;stroke-miterlimit:10;}
	.st7{fill:none;stroke:#FFFFFF;stroke-miterlimit:10;}
	.st8{stroke:#FFFFFF;stroke-width:1.5;stroke-miterlimit:10;}
	.st9{display:inline;fill:none;}
	.st10{fill:#FFFFFF;}
	.st11{clip-path:url(#SVGID_00000107563356400679312040000012789920765913071771_);fill:#FFFFFF;}
	.st12{clip-path:url(#SVGID_00000107561570332130714200000016174174728151866040_);fill:#FFFFFF;}
</style>
<g id="BG" class="st0">
	<rect y="0" class="st1" width="1920" height="949.21"/>
</g>
<g id="Calque_1" class="st0">
</g>
<g id="Outlined">
	<g>
		<defs>
			<rect id="SVGID_00000080173675016819063350000005047968656374976927_" x="79.39" y="62.62" width="1761.22" height="823.98"/>
		</defs>
		<clipPath id="SVGID_00000047760006300597001790000002345955267347621547_">
			<use xlink:href="#SVGID_00000080173675016819063350000005047968656374976927_"  style="overflow:visible;"/>
		</clipPath>
		<path style="clip-path:url(#SVGID_00000047760006300597001790000002345955267347621547_);fill:#FFFFFF;" d="M1704.12,886.59h70.87
			v-40.31h-70.87V886.59z M1704.12,835.21h106.31c15.95,0,27.46-11.52,27.46-27.46v-76.19h-155.03v56.48h81.95v11.52h-60.68V835.21z
			 M1584.97,803.76v-21.7c0-3.32,2.44-5.98,5.76-5.98h7.53v27.68H1584.97z M1514.1,886.59h127.57c15.95,0,27.46-11.52,27.46-27.46
			V731.56h-127.57c-15.95,0-27.46,11.52-27.46,27.46v76.63h84.16v11.52h-84.16V886.59z M1416.2,846.51v-8.19
			c0-3.76,2.88-6.87,6.64-6.87c3.77,0,6.64,3.1,6.64,6.87v8.19c0,3.77-2.88,6.87-6.64,6.87
			C1419.08,853.37,1416.2,850.27,1416.2,846.51 M1345.33,886.59h127.57c15.95,0,27.46-11.52,27.46-27.46v-26.35
			c0-3.32-0.89-5.32-3.32-7.09l-7.75-5.32l7.75-5.98c2.44-1.99,3.32-4.87,3.32-8.19v-74.64H1372.8c-15.95,0-27.46,11.52-27.46,27.46
			v47.17c0,3.32,0.89,6.2,3.32,8.19l7.75,5.98l-7.75,5.32c-2.44,1.77-3.32,3.77-3.32,7.09V886.59z M1422.85,803.54
			c-3.77,0-6.64-3.1-6.64-6.87v-16.17c0-3.77,2.88-6.87,6.64-6.87c3.77,0,6.64,3.1,6.64,6.87v16.17
			C1429.49,800.44,1426.61,803.54,1422.85,803.54 M1331.6,731.56h-155.03v75.08h70.87v-27.68h13.29v39.2h-59.35v35.88h59.35v32.56
			h70.87V731.56z M1078.68,847.17v-27.68h13.29v21.7c0,3.32-2.44,5.98-5.76,5.98H1078.68z M1007.81,759.02v127.57h127.57
			c15.95,0,27.46-11.52,27.46-27.46v-71.32h-84.16V776.3h84.16v-44.74h-127.57C1019.32,731.56,1007.81,743.08,1007.81,759.02
			 M908.81,802.43h85.27v56.7c0,15.95-11.52,27.46-27.46,27.46H839.04v-39.42h77.07c3.32,0,5.98-2.44,5.98-5.76
			c0-3.32-2.66-5.76-5.98-5.76h-77.07V731.56h155.03v59.36h-85.27V802.43z M698.19,848.94h56.03v37.65h71.09V731.56h-70.87v70.87
			h-13.29v-70.87h-70.87v89.48C670.28,837.21,682.02,848.94,698.19,848.94 M501.52,799.55h78.18c3.32,0,5.98-2.44,5.98-5.76v-22.15
			h-13.29v16.39h-70.87v-56.48h155.03v71.09c0,3.32-0.89,6.2-3.32,8.19l-7.75,5.98l7.75,5.32c2.44,1.77,3.32,3.77,3.32,7.09v29.9
			c0,15.95-11.52,27.46-27.46,27.46H501.52v-39.42h84.16v-11.52h-84.16V799.55z M416.91,793.8v-15.28c0-3.77-2.88-6.87-6.64-6.87
			c-3.77,0-6.64,3.1-6.64,6.87v9.52h-70.87v-56.48h127.57c15.95,0,27.46,11.52,27.46,27.46v76.63h-77.07
			c-3.32,0-5.98,2.44-5.98,5.76v5.76h83.05v39.42H332.75v-59.58c0-15.95,11.52-27.46,27.46-27.46h50.72
			C414.26,799.55,416.91,797.12,416.91,793.8 M255.24,886.59h63.78V731.56h-73.97v56.48h10.19V886.59z M150.26,835.43v-52.71
			c0-3.77,2.88-6.87,6.64-6.87c3.76,0,6.64,3.1,6.64,6.87v52.71c0,3.77-2.88,6.87-6.64,6.87
			C153.14,842.3,150.26,839.2,150.26,835.43 M79.39,758.58v128.01H207.4c15.72,0,27.02-11.29,27.02-27.02V731.56H106.41
			C90.68,731.56,79.39,742.86,79.39,758.58"/>
		<path style="clip-path:url(#SVGID_00000047760006300597001790000002345955267347621547_);fill:#FFFFFF;" d="M1837.45,719.36
			v-39.42h-83.05v-5.76c0-3.32,2.66-5.76,5.98-5.76h77.07V564.32h-155.03v59.36h85.27v5.76c0,3.32-2.66,5.76-5.98,5.76h-79.29v84.16
			H1837.45z M1513.66,668.42h84.16v11.52h-84.16v39.2h128.01c15.72,0,27.02-11.29,27.02-27.02V564.32h-70.87v59.8h-6.64
			c-3.76,0-6.64-3.1-6.64-6.87v-52.93h-70.87V668.42z M1344.89,669.53v49.83h70.87v-39.64c0-3.76,2.88-6.87,6.64-6.87
			c3.77,0,6.64,3.1,6.64,6.87v39.64h70.87v-49.83c0-3.54-2.88-6.2-6.42-6.42l-24.36-2.21v-6.42l24.36-2.22
			c3.54-0.22,6.42-2.88,6.42-6.42v-81.5h-70.87v71.76c0,3.77-2.88,6.87-6.64,6.87c-3.77,0-6.64-3.1-6.64-6.87v-71.76h-70.87v81.5
			c0,3.54,2.88,6.2,6.42,6.42l24.36,2.22v6.42l-24.36,2.21C1347.77,663.32,1344.89,665.98,1344.89,669.53 M1304.14,719.36
			c15.73,0,27.02-11.29,27.02-27.02V564.32h-70.87V668.2c0,3.77-3.1,6.87-6.87,6.87H1247V564.32h-70.87V668.2
			c0,3.77-3.1,6.87-6.87,6.87h-6.42V564.32h-70.87v155.03H1304.14z M923.21,719.36h128.01c15.72,0,27.02-11.29,27.02-27.02V564.32
			h-70.87V668.2c0,3.77-3.1,6.87-6.87,6.87h-6.42V564.32h-70.87V719.36z M754.44,719.36h155.03V564.32H838.6V668.2
			c0,3.77-2.88,6.87-6.64,6.87c-3.77,0-6.64-3.1-6.64-6.87V564.32h-70.87V719.36z M585.68,719.36h128.01
			c15.73,0,27.02-11.29,27.02-27.02v-45.62h-70.87v21.48c0,3.77-3.1,6.87-6.87,6.87h-6.42V635.2h84.16v-54.93h-84.16v-15.95h-70.87
			V719.36z M487.79,632.32h84.16v59.58c0,15.95-11.52,27.46-27.46,27.46H416.92v-39.42h77.07c3.32,0,5.98-2.44,5.98-5.76
			s-2.66-5.76-5.98-5.76h-77.07v-76.63c0-15.95,11.52-27.46,27.46-27.46h127.57v56.48h-70.87v-9.52c0-3.77-2.88-6.87-6.64-6.87
			s-6.64,3.1-6.64,6.87V632.32z M319.02,656.02v-47.4h6.42c3.76,0,6.87,3.1,6.87,6.87v33.66c0,3.76-3.1,6.87-6.87,6.87H319.02z
			 M248.15,719.36h70.87v-33.22h13.29v33.22h70.87v-35.21c0-3.32-0.89-5.31-3.32-7.09l-7.75-5.31l7.75-5.98
			c2.44-1.99,3.32-4.87,3.32-8.19v-93.24H248.15V719.36z M150.26,654.91v-39.42c0-3.77,2.88-6.87,6.64-6.87
			c3.76,0,6.64,3.1,6.64,6.87v39.42c0,3.77-2.88,6.87-6.64,6.87C153.14,661.77,150.26,658.67,150.26,654.91 M79.39,591.34v114.72
			h41.86v13.29h71.09v-13.29h15.06c15.72,0,27.02-11.29,27.02-27.02V564.32H106.41C90.68,564.32,79.39,575.62,79.39,591.34"/>
		<path style="clip-path:url(#SVGID_00000047760006300597001790000002345955267347621547_);fill:#FFFFFF;" d="M1753.73,492.32
			v-50.94h6.64c3.77,0,6.64,3.1,6.64,6.87v37.21c0,3.76-2.88,6.87-6.64,6.87H1753.73z M1682.86,552.12h75.3v-15.5h52.71
			c15.72,0,27.02-11.29,27.02-27.02V397.09h-155.03V552.12z M1597.15,425.44h65.11c3.77,0,6.87-3.1,6.87-6.87v-21.48h-71.98V425.44z
			 M1584.97,505.39v-23.48c0-3.77,2.88-6.87,6.64-6.87c3.77,0,6.64,3.1,6.64,6.87v23.48c0,3.77-2.88,6.87-6.64,6.87
			C1587.85,512.26,1584.97,509.15,1584.97,505.39 M1514.1,425.44h65.11c3.77,0,6.87-3.1,6.87-6.87v-21.48h-71.98V425.44z
			 M1514.1,552.12h134.21c11.96,0,20.82-8.86,20.82-20.82v-96.12H1514.1V552.12z M1416.2,500.96v-52.71c0-3.76,2.88-6.87,6.64-6.87
			c3.77,0,6.64,3.1,6.64,6.87v52.71c0,3.76-2.88,6.87-6.64,6.87C1419.08,507.83,1416.2,504.72,1416.2,500.96 M1345.33,424.11v128.01
			h128.01c15.73,0,27.02-11.29,27.02-27.02V397.09h-128.01C1356.63,397.09,1345.33,408.38,1345.33,424.11 M1176.57,397.09v155.03
			h70.87V448.25c0-3.76,2.88-6.87,6.64-6.87s6.64,3.1,6.64,6.87v103.87h70.87V397.09H1176.57z M923.64,552.12h70.87V448.25
			c0-3.76,2.88-6.87,6.64-6.87c3.76,0,6.64,3.1,6.64,6.87v103.87h70.87V448.25c0-3.76,2.88-6.87,6.64-6.87
			c3.77,0,6.64,3.1,6.64,6.87v103.87h70.87V397.09H923.64V552.12z M754.88,552.12h155.03V474.6h-70.87v30.12h-13.29V397.09h-70.87
			V552.12z M670.28,568.95h43.41c15.95,0,27.46-11.52,27.46-27.46v-61.13h-70.87v49.61h35.44v10.19h-35.44V568.95z M670.28,468.85
			h70.87v-71.76h-70.87V468.85z M585.68,397.09v71.54c0,3.76-3.1,6.87-6.87,6.87h-6.42v-78.4h-70.87v155.03h70.87v-46.51h13.29
			v46.51h70.87v-48.06c0-3.32-0.89-5.31-3.32-7.09l-8.42-5.76l8.42-6.42c2.44-1.99,3.32-4.87,3.32-8.19v-79.51H585.68z
			 M403.63,500.96v-35.88h-70.87v87.04h127.57c15.95,0,27.46-11.52,27.46-27.46V397.09H332.75v56.48h84.16v47.4
			c0,3.76-2.88,6.87-6.64,6.87C406.51,507.83,403.63,504.72,403.63,500.96 M248.15,552.12h70.87V397.09h-70.87V552.12z
			 M79.39,552.12h70.87v-48.06h13.29v48.06h70.87V397.09h-70.87v72.87h-13.29v-72.87H79.39V552.12z"/>
		<path style="clip-path:url(#SVGID_00000047760006300597001790000002345955267347621547_);fill:#FFFFFF;" d="M1767.02,384.88h70.87
			v-40.31h-70.87V384.88z M1767.02,333.06h70.87V229.85h-70.87V333.06z M1682.42,302.94v27.02h9.74v10.63h-16.39
			c-3.76,0-6.64-3.1-6.64-6.87v-52.71c0-3.76,2.88-6.87,6.64-6.87c3.77,0,6.64,3.1,6.64,6.87v10.41h70.87v-61.57h-128.01
			c-15.72,0-27.02,11.29-27.02,27.02v128.01h155.03v-81.95H1682.42z M1429.49,229.85v155.03h70.87v-32.56h84.16v-35.88h-84.16v-39.2
			h13.29v27.68h70.87v-75.08H1429.49z M1260.73,258.2h148.17c3.77,0,6.87-3.1,6.87-6.87v-21.48h-155.03V258.2z M1331.6,296.29h13.29
			v12.18h70.87V267.5h-155.03v117.38h155.03v-28.35h-84.16v-11.52h84.16v-25.03h-84.16V296.29z M1162.84,274.15h13.29v12.18H1247
			v-56.48h-155.03v155.03H1247v-39.42h-84.16v-11.52H1247v-36.1h-84.16V274.15z M994.08,340.59v-66.44h6.64
			c3.77,0,6.64,3.1,6.64,6.87v52.71c0,3.76-2.88,6.87-6.64,6.87H994.08z M923.21,384.88h128.01c15.72,0,27.02-11.3,27.02-27.02
			V229.85H923.21V384.88z M838.6,321.54v12.18c0,3.76-2.88,6.87-6.64,6.87c-3.77,0-6.64-3.1-6.64-6.87v-52.71
			c0-3.76,2.88-6.87,6.64-6.87c3.76,0,6.64,3.1,6.64,6.87v29.01h70.87v-80.17H781.46c-15.73,0-27.02,11.29-27.02,27.02v128.01
			h128.01c15.72,0,27.02-11.3,27.02-27.02v-36.32H838.6z M656.55,301.83v-29.9h6.64c3.77,0,6.64,3.1,6.64,6.87v16.17
			c0,3.76-2.88,6.87-6.64,6.87H656.55z M656.55,351.66v-21.93h6.64c3.77,0,6.64,3.1,6.64,6.87v8.19c0,3.77-2.88,6.87-6.64,6.87
			H656.55z M585.68,384.88h127.57c15.95,0,27.46-11.52,27.46-27.46v-26.36c0-3.32-0.89-5.32-3.32-7.09l-7.75-5.31l7.75-5.98
			c2.44-1.99,3.32-4.87,3.32-8.19v-74.64H585.68V384.88z M487.79,333.94v-19.27c0-3.76,2.88-6.87,6.64-6.87s6.64,3.1,6.64,6.87
			v19.27H487.79z M468.3,254.88c0-2.44,1.99-4.65,5.09-4.65h42.08c3.1,0,5.09,2.22,5.09,4.65c0,2.44-1.99,4.65-5.09,4.65h-42.08
			C470.29,259.53,468.3,257.31,468.3,254.88 M416.92,287.21v97.67h70.87v-22.59h13.29v22.59h70.87v-97.67c0-3.54-2.88-6.2-6.42-6.42
			l-24.36-2.22v-6.42l24.36-2.22c3.54-0.22,6.42-2.88,6.42-6.42v-26.8c0-3.76-3.1-6.87-6.87-6.87h-141.3c-3.76,0-6.87,3.1-6.87,6.87
			v26.8c0,3.54,2.88,6.2,6.42,6.42l24.36,2.22v6.42l-24.36,2.22C419.79,281.01,416.92,283.67,416.92,287.21 M331.21,258.2h65.11
			c3.76,0,6.87-3.1,6.87-6.87v-21.48h-71.98V258.2z M319.02,333.94v-19.27c0-3.76,2.88-6.87,6.64-6.87c3.76,0,6.64,3.1,6.64,6.87
			v19.27H319.02z M248.15,258.2h65.11c3.76,0,6.87-3.1,6.87-6.87v-21.48h-71.98V258.2z M248.15,267.95v116.94h70.87v-22.59h13.29
			v22.59h70.87V267.95H248.15z M150.26,318.88v-37.87c0-3.76,2.88-6.87,6.64-6.87c3.76,0,6.64,3.1,6.64,6.87v37.87H150.26z
			 M79.39,229.85v155.03h70.87v-33.22h13.29v33.22h70.87V229.85H79.39z"/>
		<path style="clip-path:url(#SVGID_00000047760006300597001790000002345955267347621547_);fill:#FFFFFF;" d="M1756.45,130.61h84.16
			v59.58c0,15.95-11.52,27.46-27.46,27.46h-127.57v-39.42h77.07c3.32,0,5.98-2.44,5.98-5.76c0-3.32-2.66-5.76-5.98-5.76h-77.07
			V90.08c0-15.95,11.52-27.46,27.46-27.46h127.57v56.48h-70.87v-9.52c0-3.76-2.88-6.87-6.64-6.87s-6.64,3.1-6.64,6.87V130.61z
			 M1600.98,217.65h70.87V62.61h-70.87V217.65z M1503.09,173.35v-66.44h6.64c3.77,0,6.64,3.1,6.64,6.87v52.71
			c0,3.76-2.88,6.87-6.64,6.87H1503.09z M1432.21,217.65h128.01c15.72,0,27.02-11.3,27.02-27.02V62.62h-155.03V217.65z
			 M1334.32,106.91h13.29v12.18h70.87V62.62h-155.03v155.03h155.03v-39.42h-84.16v-11.52h84.16v-36.1h-84.16V106.91z
			 M1010.53,217.65h70.87V113.78c0-3.77,2.88-6.87,6.64-6.87s6.64,3.1,6.64,6.87v103.87h70.87V113.78c0-3.77,2.88-6.87,6.64-6.87
			c3.77,0,6.64,3.1,6.64,6.87v103.87h70.87V62.62h-239.19V217.65z M403.63,151.65v-37.87c0-3.77,2.88-6.87,6.64-6.87
			c3.76,0,6.64,3.1,6.64,6.87v37.87H403.63z M332.75,62.62v155.03h70.87v-33.22h13.29v33.22h70.87V62.62H332.75z M248.15,154.31
			v12.18c0,3.76-2.88,6.87-6.64,6.87s-6.64-3.1-6.64-6.87v-52.71c0-3.77,2.88-6.87,6.64-6.87s6.64,3.1,6.64,6.87v29.01h70.87V62.62
			H191.01c-15.72,0-27.02,11.29-27.02,27.02v128.01H292c15.72,0,27.02-11.3,27.02-27.02v-36.32H248.15z M79.39,217.65h70.87V62.61
			H79.39V217.65z"/>
	</g>
</g>
</svg>
