<?xml version="1.0" encoding="utf-8"?>
<!-- Generator: Adobe Illustrator 27.8.0, SVG Export Plug-In . SVG Version: 6.00 Build 0)  -->
<svg version="1.1" xmlns="http://www.w3.org/2000/svg" xmlns:xlink="http://www.w3.org/1999/xlink" x="0px" y="0px"
	 viewBox="0 0 1920 612.69" style="enable-background:new 0 0 1920 612.69;" xml:space="preserve">
<style type="text/css">
	.st0{display:none;}
	.st1{display:inline;}
	.st2{fill:none;stroke:#FFFFFF;stroke-width:1.1487;stroke-miterlimit:10;}
	.st3{fill:none;stroke:#000000;stroke-width:0.13;stroke-miterlimit:10;}
	.st4{fill:none;stroke:#FFFFFF;stroke-width:1.5;stroke-miterlimit:10;}
	.st5{opacity:0.8;fill:#FFFFFF;}
	.st6{fill:#FFFFFF;stroke:#FFFFFF;stroke-width:0.5;stroke-miterlimit:10;}
	.st7{fill:none;stroke:#FFFFFF;stroke-miterlimit:10;}
	.st8{stroke:#FFFFFF;stroke-width:1.5;stroke-miterlimit:10;}
	.st9{display:inline;fill:none;}
	.st10{fill:#FFFFFF;}
	.st11{clip-path:url(#SVGID_00000003799539606611275000000012438824672964951979_);fill:#FFFFFF;}
	.st12{clip-path:url(#SVGID_00000181080693301517418490000011702651694996318878_);fill:#FFFFFF;}
</style>
<g id="BG" class="st0">
	<rect x="0" y="0" class="st1" width="1920" height="612.69"/>
</g>
<g id="Calque_1" class="st0">
	<g class="st1">
		<defs>
			<rect id="SVGID_1_" x="0" y="658.6" width="1920" height="611.3"/>
		</defs>
		<clipPath id="SVGID_00000132780159747511472630000005827503932177136272_">
			<use xlink:href="#SVGID_1_"  style="overflow:visible;"/>
		</clipPath>
	</g>
</g>
<g id="Outlined">
	<g>
		<defs>
			<rect id="SVGID_00000109031824587557591100000005504530372590679186_" x="161.4" y="115.38" width="1597.21" height="376.79"/>
		</defs>
		<clipPath id="SVGID_00000160885520207158393520000014464002674674711208_">
			<use xlink:href="#SVGID_00000109031824587557591100000005504530372590679186_"  style="overflow:visible;"/>
		</clipPath>
		<path style="clip-path:url(#SVGID_00000160885520207158393520000014464002674674711208_);fill:#FFFFFF;" d="M1332.29,314.8
			c-14.41,0-28.81-12.16-28.81-32.41c0-13.95,10.35-21.61,20.26-21.61c14.41,0,29.71,18.46,29.71,32.41
			C1353.45,304.45,1342.19,314.8,1332.29,314.8 M1035.18,182.9c27.91,0,49.97-17.11,49.97-33.76c0-18.91-22.51-29.71-47.72-29.71
			c-23.41,0-36.91,18.91-36.91,38.26C1000.52,176.15,1015.37,182.9,1035.18,182.9 M1163.48,409.79c-17.56,0-29.71-16.66-29.71-34.21
			c0-12.6,10.35-25.21,24.31-25.21c14.41,0,23.41,16.21,23.41,31.51C1181.48,400.34,1173.38,409.79,1163.48,409.79 M901.03,241.88
			c-13.51,0-31.06-13.06-31.06-34.66c0-12.6,9-21.16,24.76-21.16c12.6,0,22.96,9.45,22.96,32.86
			C917.68,230.17,914.53,241.88,901.03,241.88 M563.4,269.34c-14.41,0-26.11-14.86-26.11-34.66c0-10.35,8.55-19.36,21.16-19.36
			c17.11,0,30.61,13.05,30.61,27.46C589.06,256.28,580.06,269.34,563.4,269.34 M249.18,491.72c47.27,0,75.63-31.96,75.63-65.73
			c0-38.26-51.77-31.96-51.77-52.22c0-6.3,2.25-15.31,2.25-22.06c0-25.66-42.77-33.76-42.77-52.22c0-5.85,4.5-9.9,11.7-9.9
			c27.01,0,35.11,51.77,76.98,51.77c21.61,0,26.11-7.65,38.72-7.65c6.75,0,11.25,4.05,11.25,10.8c0,23.86-28.36,38.26-28.36,77.43
			c0,40.52,34.21,69.78,81.93,69.78c73.38,0,108.04-41.87,108.04-93.19c0-63.92-62.12-71.58-62.12-103.54
			c0-9.45,4.95-18.01,18.01-18.01c9.9,0,19.36,6.3,26.56,28.81c12.15,37.81,32.86,51.32,61.22,51.32
			c65.73,0,74.73-61.67,80.13-104.89c1.8-14.86,8.1-23.41,18.91-23.41c9.45,0,13.06,6.75,13.06,14.41
			c0,20.26-27.91,50.42-27.91,70.68c0,9,13.51,15.31,13.51,25.21c0,22.51-40.07,50.87-40.07,91.38c0,39.17,27.91,61.22,65.27,61.22
			c41.87,0,71.58-25.21,71.58-56.72c0-10.35-4.05-17.56-14.86-28.36c-21.16-21.16-32.86-50.87-32.86-71.13
			c0-66.63,58.97-114.34,58.97-165.66c0-31.51-18.91-54.47-54.92-54.47c-33.31,0-58.97,16.66-58.97,46.37
			c0,17.11,10.35,31.96,10.35,42.77c0,10.35-6.75,16.66-15.76,16.66c-13.96,0-16.21-11.25-16.21-28.36
			c0-35.11-16.66-49.97-45.02-49.97c-37.81,0-49.97,35.11-71.58,35.11c-10.35,0-13.96-5.4-28.81-5.4
			c-17.11,0-27.91,12.6-27.91,26.56c0,29.71,30.61,35.56,30.61,53.12c0,7.65-7.65,15.31-24.76,15.31c-18.91,0-27.01-4.95-40.52-4.95
			c-12.16,0-21.16,9-24.76,23.86c-6.75,26.11,1.8,59.42-19.81,59.42c-11.25,0-17.11-10.8-17.11-23.86
			c0-33.31,37.36-54.47,37.36-115.69c0-36.01-18.46-83.73-72.03-83.73c-44.12,0-61.67,32.41-78.78,32.41
			c-17.56,0-25.21-18.01-52.22-18.01c-29.26,0-49.97,22.96-49.97,51.32c0,56.27,43.22,99.49,43.22,135.5
			c0,36.46-27.91,57.17-27.91,99.04C176.7,460.21,197.86,491.72,249.18,491.72 M450.41,401.24c-13.06,0-23.86-9.45-23.86-26.56
			c0-17.11,15.76-26.11,31.51-26.11c13.95,0,22.06,9.45,22.06,24.31S463.91,401.24,450.41,401.24 M305,258.08
			c-17.11,0-41.42-15.76-41.42-35.56c0-15.76,13.96-26.56,26.56-26.56c17.11,0,37.36,15.31,37.36,36.46
			C327.51,244.58,319.86,258.08,305,258.08 M1379.11,492.17c55.82,0,102.19-36.01,102.19-95.89c0-27.46-19.81-40.07-33.76-40.07
			c-14.41,0-28.81,21.61-40.07,21.61c-9.9,0-13.51-9.9-21.61-9.9c-10.8,0-27.91,34.21-47.72,34.21c-13.95,0-22.06-11.25-22.06-27.46
			c0-16.21,11.7-30.16,26.56-30.16c14.41,0,31.96,3.15,52.67,3.15c19.36,0,32.86-14.86,32.86-35.56c0-15.76-9-44.12-9-63.92
			c0-14.41,5.4-24.76,20.26-24.76c9,0,14.41,5.4,14.41,16.21c0,11.71-8.1,33.31-8.1,60.32c0,25.66,13.5,48.17,46.82,48.17
			c28.36,0,46.82-22.06,46.82-42.32c0-27.91-19.81-59.87-19.81-82.38c0-8.1,3.15-20.71,17.11-20.71c14.86,0,22.06,11.25,45.47,11.25
			c5.4,0,8.1,3.6,8.1,8.1c0,16.21-34.66,37.82-34.66,86.43c0,30.61,18.91,49.52,42.77,49.52c20.71,0,41.42-9.45,51.77-9.45
			c5.85,0,9.45,3.15,9.45,8.1c0,12.15-26.11,11.7-26.11,22.51c0,12.6,24.31,12.16,24.31,25.21c0,9.45-7.65,15.76-20.71,15.76
			c-35.11,0-55.37-56.72-92.73-56.72c-22.96,0-43.67,20.71-43.67,47.27c0,44.57,55.37,81.03,131,81.03
			c80.58,0,126.95-48.17,126.95-106.69c0-41.87-31.51-67.08-67.08-67.08c-14.41,0-41.87,6.75-55.37,6.75
			c-19.36,0-30.16-9.9-30.16-27.01c0-9,5.85-17.11,14.41-17.11c18.01,0,23.41,24.31,58.52,24.31c30.61,0,42.32-24.31,42.32-43.67
			c0-26.11-15.76-45.47-46.82-45.47c-28.81,0-40.52,13.51-59.42,13.51c-6.75,0-13.51-2.7-13.51-10.8c0-4.95,3.15-8.1,8.1-13.06
			c10.35-9.9,20.71-24.76,20.71-45.92c0-25.21-18.91-41.87-42.32-41.87c-48.17,0-49.52,69.33-65.72,69.33
			c-4.05,0-6.75-2.25-6.75-7.2c0-10.35,13.95-24.31,13.95-35.11c0-4.95-3.6-8.55-8.55-8.55c-5.85,0-11.7,2.25-18.91,0.9
			c-13.06-2.7-13.51-18.91-36.91-18.91c-23.41,0-33.31,17.11-33.31,37.82c0,18.91,9.9,34.21,9.9,46.82c0,6.75-3.15,10.35-9.45,10.35
			c-12.6,0-20.71-5.4-30.16-5.4c-16.66,0-22.96,18.46-37.36,18.46c-17.11,0-27.91-13.96-53.57-13.96
			c-22.96,0-37.81,11.25-50.87,39.17c-14.41,31.51-16.21,75.63-39.61,76.08c-9.9,0-15.31-7.2-15.31-17.11
			c0-16.21,18.01-34.21,18.01-49.52c0-12.6-18.01-16.21-18.01-27.91c0-18.46,24.31-33.76,24.31-67.08
			c0-27.01-20.26-47.72-53.57-47.72c-43.67,0-68.43,24.31-68.43,64.83c0,64.82,72.93,87.33,72.93,118.85
			c0,10.8-6.3,15.31-12.6,15.31c-20.71,0-28.36-37.36-63.02-37.36c-21.16,0-34.66,15.76-34.66,32.41c0,15.31,5.4,21.61,5.4,35.56
			c0,8.1-4.5,11.71-10.8,11.71c-14.41,0-29.26-27.91-29.26-50.42c0-10.8,1.8-19.36,18.01-29.71c22.06-14.41,42.32-26.11,42.32-53.12
			c0-23.41-15.76-33.76-33.31-33.76c-27.91,0-38.26,36.46-56.27,36.46c-22.96,0-13.96-30.61-26.56-63.02
			c-6.3-16.21-23.41-32.41-49.97-32.41c-20.26,0-28.36,8.1-47.27,8.1c-18.91,0-22.96-15.3-45.92-15.3
			c-18.91,0-36.01,12.15-36.01,33.76c0,24.31,12.15,43.67,12.15,62.57c0,24.76-43.22,24.31-43.22,46.82c0,9.9,10.8,17.56,10.8,26.11
			c0,12.15-24.76,32.86-24.76,60.32c0,22.96,13.96,43.67,45.47,43.67c30.16,0,46.37-21.61,45.02-48.62
			c-1.35-26.11-15.31-38.26-15.31-56.27c0-9,6.3-14.41,13.95-14.41c12.15,0,19.36,11.71,19.36,27.91
			c0,42.32-13.06,87.78-13.06,123.8c0,37.36,20.26,59.42,56.27,59.42c39.61,0,57.62-27.91,57.62-62.12
			c0-59.42-73.38-108.04-73.38-128.75c0-6.75,4.05-9.9,9-9.9c13.5,0,18.01,8.1,40.07,8.1c34.66,0,40.52-58.97,69.33-58.97
			c7.2,0,9.9,5.4,9.9,12.15c0,27.46-54.47,54.47-54.47,109.84c0,31.51,24.31,47.27,43.67,47.27c36.91,0,44.57-39.16,58.52-39.16
			c6.75,0,9,3.6,9,10.8c0,14.41-8.1,33.31-8.1,55.37c0,31.06,20.26,48.62,45.02,48.62c38.71,0,49.52-48.62,67.53-48.62
			c18.91,0,19.36,52.67,53.57,52.67c27.01,0,42.77-19.81,42.77-41.87c0-40.07-44.12-68.43-44.12-95.89
			c0-17.56,11.25-24.31,22.96-24.31c22.51,0,33.76,19.36,33.76,40.07c0,14.41-1.8,27.01-1.8,47.72
			C1288.17,469.66,1331.39,492.17,1379.11,492.17"/>
	</g>
</g>
</svg>
